<svg width="592" height="352" viewBox="0 0 592 352" fill="none" xmlns="http://www.w3.org/2000/svg">
<g id="2Enterprise-clouds 1">
<g id="Group">
<path id="Vector" d="M121.1 176.1L297 307L410.7 176.1L298.9 153.2L121.1 176.1Z" fill="#BBC63D" fill-opacity="0.2"/>
<path id="Vector 2" d="M121.1 176.1L297 307L410.7 176.1L298.9 153.2L121.1 176.1Z" stroke="#BAB306" stroke-miterlimit="10" stroke-linejoin="round" stroke-dasharray="1 1"/>
<path id="Vector 3" d="M296.7 31.8V317.1" stroke="#FAFF00" stroke-width="2" stroke-miterlimit="10" stroke-linejoin="round"/>
<path id="Vector 4" d="M296.7 31.8L298.9 34L296.7 27.8L294.5 34L296.7 31.8Z" fill="#FAFF00" stroke="#FAFF00" stroke-width="2" stroke-miterlimit="10"/>
<path id="Vector 5" d="M296.7 317.1L294.5 314.9L296.7 321.1L298.9 314.9L296.7 317.1Z" fill="#FAFF00" stroke="#FAFF00" stroke-width="2" stroke-miterlimit="10"/>
<path id="Vector 6" d="M114.6 176H478.7" stroke="#FAFF00" stroke-width="2" stroke-miterlimit="10" stroke-linejoin="round"/>
<path id="Vector 7" d="M114.6 176L116.8 173.8L110.6 176L116.8 178.2L114.6 176Z" fill="#FAFF00" stroke="#FAFF00" stroke-width="2" stroke-miterlimit="10"/>
<path id="Vector 8" d="M478.7 176L476.5 178.2L482.7 176L476.5 173.8L478.7 176Z" fill="#FAFF00" stroke="#FAFF00" stroke-width="2" stroke-miterlimit="10"/>
<path id="Vector 9" d="M272.7 5.79999H275.6C276.7 5.79999 277.6 5.99999 278.2 6.49999C278.8 6.99999 279.1 7.69999 279.1 8.89999C279.1 9.59999 279 10.2 278.7 10.6C278.4 11 278 11.3 277.4 11.3C278.8 11.6 279.5 12.5 279.5 14.2C279.5 15.3 279.2 16.2 278.7 16.8C278.1 17.4 277.3 17.7 276.2 17.7H272.8V5.79999H272.7ZM275.6 10.7C276.2 10.7 276.7 10.6 276.9 10.3C277.1 9.99999 277.2 9.59999 277.2 8.89999C277.2 8.29999 277 7.89999 276.7 7.69999C276.4 7.49999 275.9 7.39999 275.2 7.39999H274.8V10.7H275.6ZM275.7 16.2C276.3 16.2 276.8 16 277 15.7C277.2 15.4 277.4 14.9 277.4 14.2C277.4 13.5 277.3 13 277 12.6C276.7 12.3 276.3 12.1 275.7 12.1H274.9V16.1H275.7V16.2ZM282.1 17.8C281.6 17.8 281.3 17.6 281 17.3C280.8 16.9 280.7 16.5 280.7 16V9.29999H282.7V15.7C282.7 16 282.7 16.2 282.8 16.3C282.9 16.4 283 16.5 283.3 16.5C283.5 16.5 283.8 16.4 284.2 16.1V9.29999H286.2V17.8H284.2V17C283.4 17.5 282.8 17.8 282.1 17.8ZM289.9 17.8C289.2 17.8 288.6 17.6 288.1 17.2C287.6 16.8 287.3 16.3 287.1 15.5L288.6 14.9C288.8 15.8 289.2 16.3 289.8 16.3C290 16.3 290.2 16.2 290.3 16.1C290.4 16 290.5 15.8 290.5 15.6C290.5 15.4 290.4 15.2 290.3 15C290.2 14.8 289.9 14.6 289.6 14.3L288.6 13.4C288.2 13 287.9 12.7 287.6 12.4C287.4 12.1 287.3 11.7 287.3 11.2C287.3 10.5 287.5 9.99999 288 9.59999C288.5 9.19999 289 8.99999 289.7 8.99999C290.4 8.99999 290.9 9.19999 291.3 9.59999C291.7 9.99999 292 10.5 292.1 11.2L290.8 11.8C290.7 11.4 290.6 11.1 290.4 10.8C290.2 10.5 290 10.4 289.7 10.4C289.5 10.4 289.3 10.5 289.2 10.6C289.1 10.7 289 10.9 289 11.1C289 11.3 289.1 11.4 289.2 11.6C289.3 11.8 289.5 12 289.8 12.2L290.8 13.1C291.2 13.5 291.6 13.8 291.8 14.2C292 14.5 292.2 15 292.2 15.4C292.2 16.1 292 16.7 291.5 17.1C291.2 17.6 290.6 17.8 289.9 17.8ZM293.6 6.19999H295.6V7.89999H293.6V6.19999ZM293.6 9.19999H295.6V17.7H293.6V9.19999ZM297.1 9.19999H299.1V9.99999C299.8 9.39999 300.5 8.99999 301.2 8.99999C301.7 8.99999 302 9.19999 302.3 9.49999C302.5 9.89999 302.7 10.3 302.7 10.8V17.5H300.7V11.2C300.7 10.9 300.7 10.7 300.6 10.6C300.5 10.5 300.4 10.4 300.1 10.4C299.9 10.4 299.6 10.5 299.2 10.8V17.5H297.2V9.19999H297.1ZM306.6 17.8C305.7 17.8 305 17.5 304.5 17C304.1 16.5 303.8 15.7 303.8 14.7V12.2C303.8 11.2 304 10.4 304.5 9.89999C304.9 9.39999 305.6 9.09999 306.6 9.09999C307.6 9.09999 308.2 9.39999 308.6 9.89999C309 10.4 309.2 11.3 309.2 12.3V13.5H305.8V15.2C305.8 15.6 305.9 15.9 306 16.1C306.1 16.3 306.3 16.4 306.6 16.4C306.8 16.4 307 16.3 307.1 16.1C307.2 15.9 307.3 15.6 307.3 15.3V14.6H309.2V15.2C309.2 16.1 309 16.7 308.5 17.2C308.1 17.6 307.5 17.8 306.6 17.8ZM307.4 12.6V11.8C307.4 11.4 307.3 11 307.2 10.9C307.1 10.7 306.9 10.6 306.6 10.6C306.3 10.6 306.1 10.7 306 10.9C305.9 11.1 305.8 11.5 305.8 12V12.6H307.4ZM312.9 17.8C312.2 17.8 311.6 17.6 311.1 17.2C310.6 16.8 310.3 16.3 310.1 15.5L311.6 14.9C311.8 15.8 312.2 16.3 312.8 16.3C313 16.3 313.2 16.2 313.3 16.1C313.4 16 313.5 15.8 313.5 15.6C313.5 15.4 313.4 15.2 313.3 15C313.2 14.8 312.9 14.6 312.6 14.3L311.6 13.4C311.2 13 310.9 12.7 310.6 12.4C310.4 12.1 310.3 11.7 310.3 11.2C310.3 10.5 310.5 9.99999 311 9.59999C311.5 9.19999 312 8.99999 312.7 8.99999C313.4 8.99999 313.9 9.19999 314.3 9.59999C314.7 9.99999 315 10.5 315.1 11.2L313.8 11.8C313.7 11.4 313.6 11.1 313.4 10.8C313.2 10.5 313 10.4 312.7 10.4C312.5 10.4 312.3 10.5 312.2 10.6C312.1 10.7 312 10.9 312 11.1C312 11.3 312.1 11.4 312.2 11.6C312.3 11.8 312.5 12 312.8 12.2L313.8 13.1C314.2 13.5 314.6 13.8 314.8 14.2C315 14.5 315.2 15 315.2 15.4C315.2 16.1 315 16.7 314.5 17.1C314.2 17.6 313.6 17.8 312.9 17.8ZM318.8 17.8C318.1 17.8 317.5 17.6 317 17.2C316.5 16.8 316.2 16.3 316 15.5L317.5 14.9C317.7 15.8 318.1 16.3 318.7 16.3C318.9 16.3 319.1 16.2 319.2 16.1C319.3 16 319.4 15.8 319.4 15.6C319.4 15.4 319.3 15.2 319.2 15C319.1 14.8 318.8 14.6 318.5 14.3L317.5 13.4C317.1 13 316.8 12.7 316.5 12.4C316.3 12.1 316.2 11.7 316.2 11.2C316.2 10.5 316.4 9.99999 316.9 9.59999C317.4 9.19999 317.9 8.99999 318.6 8.99999C319.3 8.99999 319.8 9.19999 320.2 9.59999C320.6 9.99999 320.9 10.5 321 11.2L319.7 11.8C319.6 11.4 319.5 11.1 319.3 10.8C319.1 10.6 318.9 10.4 318.6 10.4C318.4 10.4 318.2 10.5 318.1 10.6C318 10.7 317.9 10.9 317.9 11.1C317.9 11.3 318 11.4 318.1 11.6C318.2 11.8 318.4 12 318.7 12.2L319.7 13.1C320.1 13.5 320.5 13.8 320.7 14.2C320.9 14.5 321.1 15 321.1 15.4C321.1 16.1 320.9 16.7 320.4 17.1C320.1 17.6 319.5 17.8 318.8 17.8Z" fill="white"/>
<path id="Vector 10" d="M503.3 168.4H508.3V169.9H505.5V173.3H507.7V174.8H505.5V178.7H508.4V180.2H503.4V168.4H503.3ZM510.6 175.7L508.8 171.8H510.8L511.9 174.1L512.8 171.8H514.5L512.7 176L514.6 180.3H512.6L511.4 177.7L510.4 180.3H508.7L510.6 175.7ZM518.1 180.4C517.2 180.4 516.5 180.1 516 179.6C515.6 179.1 515.3 178.3 515.3 177.3V174.8C515.3 173.8 515.5 173 516 172.5C516.4 172 517.1 171.7 518.1 171.7C519.1 171.7 519.7 172 520.1 172.5C520.5 173 520.7 173.9 520.7 174.9V176.1H517.3V177.8C517.3 178.2 517.4 178.5 517.5 178.7C517.6 178.9 517.8 179 518.1 179C518.3 179 518.5 178.9 518.6 178.7C518.7 178.5 518.8 178.2 518.8 177.9V177.2H520.7V177.8C520.7 178.7 520.5 179.3 520 179.8C519.6 180.2 518.9 180.4 518.1 180.4ZM518.8 175.2V174.4C518.8 174 518.7 173.6 518.6 173.5C518.5 173.3 518.3 173.2 518 173.2C517.7 173.2 517.5 173.3 517.4 173.5C517.3 173.7 517.2 174.1 517.2 174.6V175.2H518.8ZM524.6 180.4C523.7 180.4 523 180.1 522.5 179.6C522.1 179.1 521.9 178.3 521.9 177.3V174.7C521.9 173.7 522.1 172.9 522.5 172.4C522.9 171.9 523.6 171.6 524.6 171.6C525.5 171.6 526.2 171.8 526.6 172.3C527 172.7 527.2 173.4 527.2 174.3V175H525.3V174.3C525.3 173.9 525.2 173.5 525.1 173.4C525 173.2 524.8 173.2 524.6 173.2C524.3 173.2 524.1 173.3 524 173.5C523.9 173.7 523.8 174.1 523.8 174.6V177.7C523.8 178.2 523.9 178.6 524 178.8C524.1 179 524.3 179.1 524.6 179.1C524.9 179.1 525.1 179 525.1 178.8C525.2 178.6 525.3 178.3 525.3 177.9V177H527.2V177.8C527.2 178.7 527 179.3 526.6 179.8C526.1 180.2 525.5 180.4 524.6 180.4ZM529.9 180.4C529.4 180.4 529.1 180.2 528.8 179.9C528.6 179.5 528.5 179.1 528.5 178.6V171.9H530.5V178.3C530.5 178.6 530.5 178.8 530.6 178.9C530.7 179 530.8 179.1 531.1 179.1C531.3 179.1 531.6 179 532 178.7V171.9H534V180.4H532V179.6C531.3 180.1 530.6 180.4 529.9 180.4ZM537.9 180.4C537.1 180.4 536.6 180.2 536.3 179.8C536 179.4 535.8 178.9 535.8 178.1V173H535V171.7H535.8V169.2H537.8V171.7H539.1V173H537.8V177.9C537.8 178.2 537.9 178.4 538 178.5C538.1 178.6 538.3 178.7 538.6 178.7C538.8 178.7 539 178.7 539.2 178.7V180.2C538.8 180.4 538.4 180.4 537.9 180.4ZM540.4 168.8H542.4V170.5H540.4V168.8ZM540.4 171.8H542.4V180.3H540.4V171.8ZM546.5 180.4C545.6 180.4 544.9 180.2 544.5 179.7C544.1 179.2 543.8 178.5 543.8 177.5V174.7C543.8 173.7 544 173 544.5 172.5C545 172 545.6 171.7 546.5 171.7C547.4 171.7 548.1 172 548.5 172.5C549 173 549.2 173.7 549.2 174.7V177.5C549.2 178.5 549 179.2 548.5 179.7C548.1 180.2 547.4 180.4 546.5 180.4ZM546.5 179.1C546.8 179.1 547 179 547.1 178.7C547.2 178.5 547.3 178.1 547.3 177.6V174.5C547.3 174 547.2 173.7 547.1 173.4C547 173.2 546.8 173 546.5 173C546.2 173 546 173.1 545.9 173.4C545.8 173.6 545.8 174 545.8 174.5V177.6C545.8 178.1 545.8 178.4 545.9 178.7C546 178.9 546.2 179.1 546.5 179.1ZM550.6 171.8H552.6V172.6C553.3 172 554 171.6 554.7 171.6C555.2 171.6 555.5 171.8 555.8 172.1C556 172.5 556.2 172.9 556.2 173.4V180.1H554.2V174C554.2 173.7 554.2 173.5 554.1 173.4C554 173.3 553.9 173.2 553.6 173.2C553.4 173.2 553.1 173.3 552.7 173.6V180.3H550.7V171.8H550.6Z" fill="white"/>
<path id="Vector 11" d="M33.1 168.4H35.2V180.3H33.1V168.4ZM37 171.8H39V172.6C39.7 172 40.4 171.6 41.1 171.6C41.6 171.6 41.9 171.8 42.2 172.1C42.4 172.5 42.6 172.9 42.6 173.4V180.1H40.6V174C40.6 173.7 40.6 173.5 40.5 173.4C40.4 173.3 40.3 173.2 40 173.2C39.8 173.2 39.5 173.3 39.1 173.6V180.3H37.1V171.8H37ZM43.9 171.8H45.9V172.6C46.6 172 47.3 171.6 48 171.6C48.5 171.6 48.8 171.8 49.1 172.1C49.3 172.5 49.5 172.9 49.5 173.4V180.1H47.5V174C47.5 173.7 47.5 173.5 47.4 173.4C47.3 173.3 47.2 173.2 46.9 173.2C46.7 173.2 46.4 173.3 46 173.6V180.3H44V171.8H43.9ZM53.4 180.4C52.5 180.4 51.8 180.2 51.4 179.7C51 179.2 50.7 178.5 50.7 177.5V174.7C50.7 173.7 50.9 173 51.4 172.5C51.9 172 52.5 171.7 53.4 171.7C54.3 171.7 55 172 55.4 172.5C55.9 173 56.1 173.7 56.1 174.7V177.5C56.1 178.5 55.9 179.2 55.4 179.7C55 180.2 54.3 180.4 53.4 180.4ZM53.5 179.1C53.8 179.1 54 179 54.1 178.7C54.2 178.5 54.3 178.1 54.3 177.6V174.5C54.3 174 54.2 173.7 54.1 173.4C54 173.2 53.8 173 53.5 173C53.2 173 53 173.1 52.9 173.4C52.8 173.6 52.8 174 52.8 174.5V177.6C52.8 178.1 52.8 178.4 52.9 178.7C52.9 178.9 53.1 179.1 53.5 179.1ZM57 171.8H58.9L59.8 177.9L60.7 171.8H62.6L60.9 180.3H58.7L57 171.8ZM65.1 180.4C64.7 180.4 64.4 180.3 64.1 180.1C63.8 179.9 63.6 179.7 63.5 179.4C63.4 179.1 63.3 178.8 63.3 178.4C63.3 177.7 63.5 177.2 63.8 176.8C64.1 176.4 64.5 176 64.9 175.8C65.4 175.6 66 175.3 66.7 175V174.3C66.7 173.9 66.7 173.6 66.6 173.5C66.5 173.3 66.3 173.2 66.1 173.2C65.7 173.2 65.4 173.5 65.4 174.1V174.6L63.5 174.5C63.5 173.5 63.8 172.8 64.2 172.3C64.7 171.8 65.3 171.6 66.3 171.6C67.1 171.6 67.7 171.8 68.1 172.3C68.5 172.8 68.7 173.4 68.7 174.2V178.1C68.7 178.7 68.7 179.4 68.8 180.2H67C66.9 179.7 66.8 179.3 66.8 179C66.7 179.4 66.5 179.7 66.2 180C65.9 180.3 65.5 180.4 65.1 180.4ZM65.8 179C66 179 66.1 178.9 66.3 178.8C66.5 178.7 66.6 178.5 66.7 178.4V176C66.2 176.3 65.8 176.6 65.5 176.9C65.2 177.2 65.1 177.5 65.1 177.9C65.1 178.2 65.2 178.5 65.3 178.7C65.5 178.9 65.6 179 65.8 179ZM72.5 180.4C71.7 180.4 71.2 180.2 70.9 179.8C70.6 179.4 70.4 178.9 70.4 178.1V173H69.6V171.7H70.4V169.2H72.4V171.7H73.7V173H72.4V177.9C72.4 178.2 72.5 178.4 72.6 178.5C72.7 178.6 72.9 178.7 73.2 178.7C73.4 178.7 73.6 178.7 73.8 178.7V180.2C73.4 180.4 73 180.4 72.5 180.4ZM75 168.8H77V170.5H75V168.8ZM75 171.8H77V180.3H75V171.8ZM81.2 180.4C80.3 180.4 79.6 180.2 79.2 179.7C78.8 179.2 78.5 178.5 78.5 177.5V174.7C78.5 173.7 78.7 173 79.2 172.5C79.7 172 80.3 171.7 81.2 171.7C82.1 171.7 82.8 172 83.2 172.5C83.7 173 83.9 173.7 83.9 174.7V177.5C83.9 178.5 83.7 179.2 83.2 179.7C82.7 180.2 82.1 180.4 81.2 180.4ZM81.2 179.1C81.5 179.1 81.7 179 81.8 178.7C81.9 178.5 82 178.1 82 177.6V174.5C82 174 81.9 173.7 81.8 173.4C81.7 173.2 81.5 173 81.2 173C80.9 173 80.7 173.1 80.6 173.4C80.5 173.6 80.5 174 80.5 174.5V177.6C80.5 178.1 80.5 178.4 80.6 178.7C80.7 178.9 80.9 179.1 81.2 179.1ZM85.3 171.8H87.3V172.6C88 172 88.7 171.6 89.4 171.6C89.9 171.6 90.2 171.8 90.5 172.1C90.7 172.5 90.9 172.9 90.9 173.4V180.1H88.9V174C88.9 173.7 88.9 173.5 88.8 173.4C88.7 173.3 88.6 173.2 88.3 173.2C88.1 173.2 87.8 173.3 87.4 173.6V180.3H85.4V171.8H85.3Z" fill="white"/>
<path id="Vector 12" d="M267.1 334.2H265.2V332.6H271.1V334.2H269.3V344.5H267.1V334.2ZM274.6 344.6C273.7 344.6 273 344.3 272.5 343.8C272.1 343.3 271.8 342.5 271.8 341.5V339C271.8 338 272 337.2 272.5 336.7C272.9 336.2 273.6 335.9 274.6 335.9C275.6 335.9 276.2 336.2 276.6 336.7C277 337.2 277.2 338.1 277.2 339.1V340.3H273.8V342C273.8 342.4 273.9 342.7 274 342.9C274.1 343.1 274.3 343.2 274.6 343.2C274.9 343.2 275 343.1 275.1 342.9C275.2 342.7 275.3 342.4 275.3 342.1V341.4H277.2V342C277.2 342.9 277 343.5 276.5 344C276.1 344.4 275.5 344.6 274.6 344.6ZM275.4 339.4V338.6C275.4 338.2 275.3 337.8 275.2 337.7C275.1 337.5 274.9 337.4 274.6 337.4C274.3 337.4 274.1 337.5 274 337.7C273.9 337.9 273.8 338.3 273.8 338.8V339.4H275.4ZM281.2 344.6C280.3 344.6 279.6 344.3 279.1 343.8C278.7 343.3 278.5 342.5 278.5 341.5V339C278.5 338 278.7 337.2 279.1 336.7C279.5 336.2 280.2 335.9 281.2 335.9C282.1 335.9 282.8 336.1 283.2 336.6C283.6 337 283.8 337.7 283.8 338.6V339.3H281.9V338.6C281.9 338.2 281.8 337.8 281.7 337.7C281.6 337.5 281.4 337.5 281.2 337.5C280.9 337.5 280.7 337.6 280.6 337.8C280.5 338 280.4 338.4 280.4 338.9V342C280.4 342.5 280.5 342.9 280.6 343.1C280.7 343.3 280.9 343.4 281.2 343.4C281.5 343.4 281.7 343.3 281.7 343.1C281.8 342.9 281.9 342.6 281.9 342.2V341.3H283.8V342.1C283.8 343 283.6 343.6 283.2 344.1C282.7 344.4 282 344.6 281.2 344.6ZM285.1 332.6H287.1V336.8C287.7 336.2 288.4 335.8 289.2 335.8C289.7 335.8 290 336 290.3 336.3C290.5 336.7 290.6 337.1 290.6 337.6V344.3H288.6V338C288.6 337.7 288.6 337.5 288.5 337.4C288.4 337.3 288.3 337.2 288 337.2C287.7 337.2 287.4 337.3 287 337.6V344.3H285V332.6H285.1ZM292.1 336H294.1V336.8C294.8 336.2 295.5 335.8 296.2 335.8C296.7 335.8 297 336 297.3 336.3C297.5 336.7 297.7 337.1 297.7 337.6V344.3H295.7V338C295.7 337.7 295.7 337.5 295.6 337.4C295.5 337.3 295.4 337.2 295.1 337.2C294.9 337.2 294.6 337.3 294.2 337.6V344.3H292.2V336H292.1ZM301.6 344.6C300.7 344.6 300 344.4 299.6 343.8C299.2 343.3 298.9 342.6 298.9 341.6V338.8C298.9 337.8 299.1 337.1 299.6 336.6C300.1 336.1 300.7 335.8 301.6 335.8C302.5 335.8 303.2 336.1 303.6 336.6C304.1 337.1 304.3 337.8 304.3 338.8V341.6C304.3 342.6 304.1 343.3 303.6 343.8C303.2 344.4 302.5 344.6 301.6 344.6ZM301.6 343.2C301.9 343.2 302.1 343.1 302.2 342.8C302.3 342.6 302.4 342.2 302.4 341.7V338.6C302.4 338.1 302.3 337.8 302.2 337.5C302.1 337.3 301.9 337.1 301.6 337.1C301.3 337.1 301.1 337.2 301 337.5C300.9 337.7 300.9 338.1 300.9 338.6V341.7C300.9 342.2 300.9 342.5 301 342.8C301.1 343.1 301.3 343.2 301.6 343.2ZM305.8 332.6H307.8V344.5H305.8V332.6ZM312 344.6C311.1 344.6 310.4 344.4 310 343.8C309.6 343.3 309.3 342.6 309.3 341.6V338.8C309.3 337.8 309.5 337.1 310 336.6C310.5 336.1 311.1 335.8 312 335.8C312.9 335.8 313.6 336.1 314 336.6C314.5 337.1 314.7 337.8 314.7 338.8V341.6C314.7 342.6 314.5 343.3 314 343.8C313.5 344.4 312.9 344.6 312 344.6ZM312 343.2C312.3 343.2 312.5 343.1 312.6 342.8C312.7 342.6 312.8 342.2 312.8 341.7V338.6C312.8 338.1 312.7 337.8 312.6 337.5C312.5 337.3 312.3 337.1 312 337.1C311.7 337.1 311.5 337.2 311.4 337.5C311.3 337.7 311.3 338.1 311.3 338.6V341.7C311.3 342.2 311.3 342.5 311.4 342.8C311.4 343.1 311.7 343.2 312 343.2ZM318.5 347.3C317.6 347.3 316.9 347.2 316.4 346.9C315.9 346.6 315.6 346.2 315.6 345.7C315.6 345.3 315.7 345 315.9 344.7C316.1 344.4 316.4 344.2 316.8 344C316.5 343.9 316.2 343.8 316 343.6C315.8 343.4 315.8 343.2 315.8 342.9C315.8 342.6 315.9 342.3 316 342.1C316.2 341.9 316.4 341.6 316.7 341.3C316.4 341.1 316.2 340.7 316 340.4C315.9 340 315.8 339.6 315.8 339C315.8 338 316 337.3 316.5 336.8C317 336.3 317.7 336 318.5 336C319.4 336 320 336.3 320.4 336.8C320.5 336.7 320.6 336.5 320.8 336.3C321 336.1 321.2 336 321.5 335.9L321.8 335.8L322.3 336.9C322.1 336.9 321.9 337 321.6 337.1C321.3 337.2 321.1 337.3 320.9 337.4C321 337.6 321.1 337.8 321.1 338.1C321.2 338.4 321.2 338.7 321.2 338.9C321.2 339.8 321 340.5 320.5 341.1C320.1 341.6 319.4 341.9 318.5 341.9C318.1 341.9 317.7 341.8 317.4 341.7C317.2 341.9 317.2 342.1 317.2 342.3C317.2 342.4 317.3 342.5 317.4 342.6C317.5 342.7 317.7 342.7 318 342.7L319.8 342.9C321.2 343 321.8 343.8 321.8 345C321.8 345.8 321.5 346.3 321 346.7C320.5 347.1 319.7 347.3 318.5 347.3ZM318.7 340.6C319 340.6 319.3 340.5 319.4 340.2C319.5 339.9 319.6 339.5 319.6 338.9C319.6 338.3 319.5 337.8 319.4 337.6C319.3 337.3 319.1 337.2 318.7 337.2C318.3 337.2 318.1 337.3 318 337.6C317.9 337.9 317.8 338.3 317.8 338.9C317.8 339.5 317.9 339.9 318 340.2C318.1 340.4 318.3 340.6 318.7 340.6ZM318.8 345.8C319.4 345.8 319.8 345.7 320 345.6C320.3 345.5 320.4 345.3 320.4 345C320.4 344.8 320.3 344.6 320.2 344.5C320 344.4 319.7 344.3 319.2 344.3L317.7 344.2C317.5 344.4 317.4 344.5 317.3 344.7C317.2 344.8 317.2 345 317.2 345.2C317.2 345.4 317.3 345.6 317.6 345.7C317.8 345.7 318.2 345.8 318.8 345.8ZM323 345.3C323.5 345.3 323.9 345.3 324.1 345.2C324.3 345.1 324.4 344.9 324.4 344.7C324.4 344.5 324.3 344 324.1 343.2L322.2 336H324.1L325.2 341.6L326.2 336H328.1L326.1 344.8C325.9 345.5 325.6 346 325.1 346.3C324.6 346.6 324 346.8 323.2 346.8H323V345.3Z" fill="white"/>
<path id="Vector 13" d="M151.5 79.1C151.5 79.8 151.3 80.3 150.8 80.7C150.3 81.1 149.7 81.3 148.8 81.3C147.9 81.3 147.2 81.2 146.7 80.9V80.1C147 80.2 147.4 80.3 147.7 80.4C148.1 80.5 148.4 80.5 148.8 80.5C149.4 80.5 149.8 80.4 150.1 80.2C150.4 80 150.6 79.7 150.6 79.3C150.6 79 150.5 78.8 150.4 78.6C150.3 78.4 150.1 78.3 149.9 78.1C149.6 78 149.3 77.8 148.8 77.6C148.1 77.3 147.6 77 147.3 76.7C147 76.4 146.8 75.9 146.8 75.3C146.8 74.7 147 74.3 147.5 73.9C147.9 73.5 148.5 73.4 149.3 73.4C150 73.4 150.7 73.5 151.4 73.8L151.1 74.6C150.5 74.3 149.8 74.2 149.3 74.2C148.8 74.2 148.5 74.3 148.2 74.5C147.9 74.7 147.8 75 147.8 75.3C147.8 75.6 147.8 75.8 147.9 75.9C148 76.1 148.2 76.2 148.4 76.4C148.6 76.5 149 76.7 149.4 76.9C150.2 77.2 150.8 77.5 151.1 77.8C151.4 78.2 151.5 78.6 151.5 79.1ZM154.8 80.6C155 80.6 155.1 80.6 155.2 80.6C155.3 80.6 155.5 80.6 155.5 80.5V81.2C155.4 81.2 155.3 81.3 155.1 81.3C154.9 81.3 154.8 81.3 154.6 81.3C153.5 81.3 152.9 80.7 152.9 79.5V76.1H152.1V75.7L152.9 75.3L153.3 74.1H153.8V75.4H155.5V76.1H153.8V79.5C153.8 79.8 153.9 80.1 154 80.3C154.3 80.5 154.5 80.6 154.8 80.6ZM159.3 75.4C159.5 75.4 159.8 75.4 160 75.5L159.9 76.3C159.7 76.2 159.5 76.2 159.3 76.2C158.8 76.2 158.4 76.4 158.1 76.8C157.8 77.2 157.6 77.6 157.6 78.2V81.3H156.7V75.6H157.4L157.5 76.7C157.7 76.3 158 76 158.3 75.8C158.6 75.5 158.9 75.4 159.3 75.4ZM164.5 81.2L164.3 80.4C164 80.8 163.7 81 163.5 81.1C163.2 81.2 162.9 81.3 162.4 81.3C161.8 81.3 161.4 81.2 161.1 80.9C160.8 80.6 160.6 80.2 160.6 79.7C160.6 78.6 161.5 77.9 163.4 77.9H164.4V77.6C164.4 77.2 164.3 76.8 164.1 76.6C163.9 76.4 163.6 76.3 163.2 76.3C162.7 76.3 162.2 76.4 161.6 76.7L161.3 76C161.6 75.9 161.9 75.7 162.2 75.7C162.5 75.6 162.9 75.6 163.2 75.6C163.9 75.6 164.4 75.8 164.7 76.1C165 76.4 165.2 76.9 165.2 77.6V81.5H164.5V81.2ZM162.6 80.6C163.1 80.6 163.6 80.5 163.9 80.2C164.2 79.9 164.4 79.5 164.4 79V78.5H163.5C162.8 78.5 162.3 78.6 162 78.8C161.7 79 161.5 79.3 161.5 79.7C161.5 80 161.6 80.3 161.8 80.4C162 80.5 162.3 80.6 162.6 80.6ZM168.8 80.6C169 80.6 169.1 80.6 169.2 80.6C169.3 80.6 169.5 80.6 169.5 80.5V81.2C169.4 81.2 169.3 81.3 169.1 81.3C168.9 81.3 168.8 81.3 168.6 81.3C167.5 81.3 166.9 80.7 166.9 79.5V76.1H166.1V75.7L166.9 75.3L167.3 74.1H167.8V75.4H169.5V76.1H167.8V79.5C167.8 79.8 167.9 80.1 168 80.3C168.3 80.5 168.5 80.6 168.8 80.6ZM173.1 81.3C172.3 81.3 171.6 81 171.1 80.5C170.6 80 170.4 79.3 170.4 78.4C170.4 77.5 170.6 76.7 171.1 76.2C171.6 75.7 172.2 75.4 172.9 75.4C173.6 75.4 174.2 75.6 174.6 76.1C175 76.6 175.2 77.2 175.2 78V78.5H171.3C171.3 79.2 171.5 79.7 171.8 80C172.1 80.3 172.6 80.5 173.2 80.5C173.8 80.5 174.4 80.4 175 80.1V80.9C174.7 81 174.4 81.1 174.1 81.2C173.9 81.3 173.5 81.3 173.1 81.3ZM172.9 76.1C172.4 76.1 172.1 76.3 171.8 76.6C171.5 76.9 171.4 77.3 171.3 77.8H174.3C174.3 77.2 174.2 76.8 173.9 76.6C173.7 76.2 173.4 76.1 172.9 76.1ZM181.4 75.5V76L180.4 76.1C180.5 76.2 180.6 76.4 180.6 76.6C180.7 76.8 180.7 77 180.7 77.3C180.7 77.9 180.5 78.3 180.1 78.6C179.7 78.9 179.2 79.1 178.5 79.1C178.3 79.1 178.2 79.1 178 79.1C177.6 79.3 177.5 79.5 177.5 79.8C177.5 80 177.6 80.1 177.7 80.1C177.8 80.2 178 80.2 178.4 80.2H179.4C180 80.2 180.5 80.3 180.8 80.6C181.1 80.9 181.3 81.2 181.3 81.7C181.3 82.3 181 82.8 180.5 83.1C180 83.4 179.3 83.6 178.3 83.6C177.6 83.6 177 83.5 176.6 83.2C176.2 82.9 176 82.5 176 82C176 81.7 176.1 81.4 176.3 81.1C176.5 80.9 176.8 80.7 177.2 80.6C177.1 80.5 176.9 80.4 176.8 80.3C176.7 80.2 176.7 80 176.7 79.8C176.7 79.6 176.8 79.4 176.9 79.3C177 79.1 177.2 79 177.4 78.8C177.1 78.7 176.9 78.5 176.7 78.2C176.5 77.9 176.4 77.6 176.4 77.2C176.4 76.6 176.6 76.1 177 75.8C177.4 75.5 177.9 75.3 178.6 75.3C178.9 75.3 179.2 75.3 179.4 75.4H181.4V75.5ZM176.8 82.1C176.8 82.4 176.9 82.6 177.2 82.8C177.5 83 177.8 83 178.3 83C179 83 179.5 82.9 179.9 82.7C180.3 82.5 180.4 82.2 180.4 81.8C180.4 81.5 180.3 81.3 180.1 81.2C179.9 81.1 179.6 81 179 81H178C177.6 81 177.3 81.1 177.1 81.3C176.9 81.5 176.8 81.8 176.8 82.1ZM177.3 77.3C177.3 77.7 177.4 78 177.6 78.2C177.8 78.4 178.1 78.5 178.5 78.5C179.3 78.5 179.8 78.1 179.8 77.3C179.8 76.4 179.4 76 178.5 76C178.1 76 177.8 76.1 177.6 76.3C177.4 76.5 177.3 76.9 177.3 77.3ZM181.6 75.5H182.5L183.7 78.7C184 79.4 184.1 80 184.2 80.3C184.2 80.1 184.3 79.8 184.5 79.4C184.6 79 185.1 77.7 185.9 75.4H186.8L184.3 81.9C184.1 82.5 183.8 83 183.5 83.3C183.2 83.6 182.8 83.7 182.3 83.7C182 83.7 181.8 83.7 181.5 83.6V83C181.7 83 181.9 83.1 182.1 83.1C182.7 83.1 183.1 82.8 183.4 82.1L183.7 81.3L181.6 75.5Z" fill="white"/>
<path id="Vector 14" d="M138.4 87.3C137.6 87.3 136.9 87.6 136.4 88.1C135.9 88.7 135.7 89.4 135.7 90.4C135.7 91.4 135.9 92.2 136.4 92.7C136.9 93.2 137.5 93.5 138.4 93.5C138.9 93.5 139.5 93.4 140.2 93.2V94C139.7 94.2 139 94.3 138.2 94.3C137.1 94.3 136.2 94 135.6 93.3C135 92.6 134.7 91.6 134.7 90.4C134.7 89.6 134.8 88.9 135.1 88.3C135.4 87.7 135.8 87.3 136.4 86.9C137 86.6 137.6 86.4 138.4 86.4C139.2 86.4 139.9 86.5 140.5 86.8L140.1 87.6C139.6 87.4 139 87.3 138.4 87.3ZM146.7 91.3C146.7 92.2 146.5 93 146 93.5C145.5 94 144.9 94.3 144 94.3C143.5 94.3 143.1 94.2 142.7 93.9C142.3 93.7 142 93.3 141.8 92.9C141.6 92.5 141.5 91.9 141.5 91.3C141.5 90.4 141.7 89.6 142.2 89.1C142.7 88.6 143.3 88.3 144.1 88.3C144.9 88.3 145.5 88.6 146 89.1C146.5 89.7 146.7 90.4 146.7 91.3ZM142.4 91.3C142.4 92 142.5 92.6 142.8 93C143.1 93.4 143.5 93.6 144.1 93.6C144.7 93.6 145.1 93.4 145.4 93C145.7 92.6 145.8 92.1 145.8 91.3C145.8 90.6 145.7 90 145.4 89.7C145.1 89.3 144.7 89.1 144.1 89.1C143.5 89.1 143.1 89.3 142.8 89.7C142.5 90 142.4 90.6 142.4 91.3ZM152.1 94.2V90.5C152.1 90 152 89.7 151.8 89.5C151.6 89.3 151.3 89.2 150.8 89.2C150.2 89.2 149.8 89.4 149.5 89.7C149.2 90 149.1 90.6 149.1 91.3V94.3H148.2V88.6H148.9L149 89.4C149.2 89.1 149.4 88.9 149.7 88.7C150 88.5 150.4 88.5 150.8 88.5C151.5 88.5 152 88.7 152.3 89C152.7 89.3 152.8 89.9 152.8 90.6V94.3H152.1V94.2ZM158.4 92.6C158.4 93.1 158.2 93.5 157.8 93.8C157.4 94.1 156.9 94.2 156.1 94.2C155.3 94.2 154.7 94.1 154.3 93.8V93C154.6 93.1 154.9 93.3 155.2 93.3C155.5 93.4 155.8 93.4 156.1 93.4C156.5 93.4 156.9 93.3 157.1 93.2C157.3 93.1 157.5 92.8 157.5 92.5C157.5 92.3 157.4 92.1 157.2 91.9C157 91.7 156.6 91.5 156.1 91.3C155.6 91.1 155.2 90.9 155 90.8C154.8 90.7 154.6 90.5 154.5 90.3C154.4 90.1 154.3 89.9 154.3 89.6C154.3 89.1 154.5 88.8 154.9 88.5C155.3 88.2 155.8 88.1 156.5 88.1C157.1 88.1 157.7 88.2 158.3 88.5L158 89.2C157.4 89 156.9 88.9 156.4 88.9C156 88.9 155.7 89 155.5 89.1C155.3 89.2 155.2 89.4 155.2 89.6C155.2 89.8 155.2 89.9 155.3 90C155.4 90.1 155.5 90.2 155.7 90.3C155.9 90.4 156.2 90.5 156.7 90.7C157.4 90.9 157.8 91.2 158.1 91.4C158.4 91.6 158.4 92.2 158.4 92.6ZM160.7 88.5V92.2C160.7 92.7 160.8 93 161 93.2C161.2 93.4 161.5 93.5 162 93.5C162.6 93.5 163 93.3 163.3 93C163.6 92.7 163.7 92.1 163.7 91.4V88.4H164.6V94.1H163.9L163.8 93.3C163.6 93.6 163.4 93.8 163.1 94C162.8 94.1 162.4 94.2 162 94.2C161.3 94.2 160.8 94 160.5 93.7C160.2 93.4 160 92.8 160 92.1V88.4H160.7V88.5ZM167.3 94.2H166.4V86.1H167.3V94.2ZM170.9 93.6C171.1 93.6 171.2 93.6 171.3 93.6C171.4 93.6 171.6 93.6 171.6 93.5V94.2C171.5 94.2 171.4 94.3 171.2 94.3C171 94.3 170.9 94.3 170.7 94.3C169.6 94.3 169 93.7 169 92.5V89.1H168.2V88.7L169 88.3L169.4 87.1H169.9V88.4H171.6V89.1H170V92.5C170 92.8 170.1 93.1 170.2 93.3C170.4 93.5 170.6 93.6 170.9 93.6ZM173.7 94.2H172.8V88.5H173.7V94.2ZM172.8 86.9C172.8 86.7 172.8 86.6 172.9 86.5C173 86.4 173.1 86.4 173.3 86.4C173.4 86.4 173.5 86.4 173.6 86.5C173.7 86.6 173.8 86.7 173.8 86.9C173.8 87.1 173.7 87.2 173.6 87.3C173.5 87.4 173.4 87.4 173.3 87.4C173.2 87.4 173 87.4 172.9 87.3C172.8 87.3 172.8 87.1 172.8 86.9ZM179.4 94.2V90.5C179.4 90 179.3 89.7 179.1 89.5C178.9 89.3 178.6 89.2 178.1 89.2C177.5 89.2 177.1 89.4 176.8 89.7C176.5 90 176.4 90.6 176.4 91.3V94.3H175.5V88.6H176.2L176.3 89.4C176.5 89.1 176.7 88.9 177 88.7C177.3 88.5 177.7 88.5 178.1 88.5C178.8 88.5 179.3 88.7 179.6 89C180 89.3 180.1 89.9 180.1 90.6V94.3H179.4V94.2ZM186.7 88.5V89L185.7 89.1C185.8 89.2 185.9 89.4 185.9 89.6C186 89.8 186 90 186 90.3C186 90.9 185.8 91.3 185.4 91.6C185 91.9 184.5 92.1 183.8 92.1C183.6 92.1 183.5 92.1 183.3 92.1C182.9 92.3 182.8 92.5 182.8 92.8C182.8 93 182.9 93.1 183 93.1C183.1 93.2 183.3 93.2 183.7 93.2H184.7C185.3 93.2 185.8 93.3 186.1 93.6C186.4 93.9 186.6 94.2 186.6 94.7C186.6 95.3 186.3 95.8 185.8 96.1C185.3 96.4 184.6 96.6 183.6 96.6C182.9 96.6 182.3 96.5 181.9 96.2C181.5 95.9 181.3 95.5 181.3 95C181.3 94.7 181.4 94.4 181.6 94.1C181.8 93.9 182.1 93.7 182.5 93.6C182.4 93.5 182.2 93.4 182.1 93.3C182 93.2 182 93 182 92.8C182 92.6 182.1 92.4 182.2 92.3C182.3 92.1 182.5 92 182.7 91.8C182.4 91.7 182.2 91.5 182 91.2C181.8 90.9 181.7 90.6 181.7 90.2C181.7 89.6 181.9 89.1 182.3 88.8C182.7 88.5 183.2 88.3 183.9 88.3C184.2 88.3 184.5 88.3 184.7 88.4H186.7V88.5ZM182.2 95.1C182.2 95.4 182.3 95.6 182.6 95.8C182.9 96 183.2 96 183.7 96C184.4 96 184.9 95.9 185.3 95.7C185.7 95.5 185.8 95.2 185.8 94.8C185.8 94.5 185.7 94.3 185.5 94.2C185.3 94.1 185 94 184.4 94H183.4C183 94 182.7 94.1 182.5 94.3C182.3 94.5 182.2 94.8 182.2 95.1ZM182.7 90.3C182.7 90.7 182.8 91 183 91.2C183.2 91.4 183.5 91.5 183.9 91.5C184.7 91.5 185.2 91.1 185.2 90.3C185.2 89.4 184.8 89 183.9 89C183.5 89 183.2 89.1 183 89.3C182.8 89.5 182.7 89.9 182.7 90.3Z" fill="white"/>
<path id="Vector 15" d="M421.4 75.8C421.4 76.6 421.1 77.2 420.6 77.6C420.1 78 419.3 78.2 418.4 78.2H417.5V81.2H416.6V73.6H418.6C420.5 73.6 421.4 74.3 421.4 75.8ZM417.5 77.4H418.3C419.1 77.4 419.7 77.3 420 77C420.4 76.7 420.5 76.3 420.5 75.8C420.5 75.3 420.3 74.9 420 74.7C419.7 74.5 419.2 74.3 418.5 74.3H417.5V77.4ZM425.5 75.4C425.7 75.4 426 75.4 426.2 75.5L426.1 76.3C425.9 76.2 425.7 76.2 425.5 76.2C425 76.2 424.6 76.4 424.3 76.8C424 77.2 423.8 77.6 423.8 78.2V81.3H422.9V75.6H423.6L423.7 76.7C423.9 76.3 424.2 76 424.5 75.8C424.8 75.5 425.1 75.4 425.5 75.4ZM432.2 78.3C432.2 79.2 432 80 431.5 80.5C431 81 430.4 81.3 429.5 81.3C429 81.3 428.6 81.2 428.2 80.9C427.8 80.7 427.5 80.3 427.3 79.9C427.1 79.5 427 78.9 427 78.3C427 77.4 427.2 76.6 427.7 76.1C428.2 75.6 428.8 75.3 429.6 75.3C430.4 75.3 431 75.6 431.5 76.1C431.9 76.7 432.2 77.4 432.2 78.3ZM427.8 78.3C427.8 79 427.9 79.6 428.2 80C428.5 80.4 428.9 80.6 429.5 80.6C430.1 80.6 430.5 80.4 430.8 80C431.1 79.6 431.2 79.1 431.2 78.3C431.2 77.6 431.1 77 430.8 76.7C430.5 76.3 430.1 76.1 429.5 76.1C428.9 76.1 428.5 76.3 428.2 76.7C428 77 427.8 77.6 427.8 78.3ZM435.9 81.3C435.1 81.3 434.4 81 434 80.5C433.6 80 433.3 79.3 433.3 78.3C433.3 77.3 433.5 76.6 434 76.1C434.5 75.6 435.1 75.3 436 75.3C436.3 75.3 436.5 75.3 436.8 75.4C437.1 75.5 437.3 75.5 437.5 75.6L437.2 76.3C437 76.2 436.8 76.2 436.6 76.1C436.4 76 436.2 76 436 76C434.8 76 434.3 76.7 434.3 78.2C434.3 78.9 434.4 79.4 434.7 79.8C435 80.2 435.4 80.4 435.9 80.4C436.4 80.4 436.9 80.3 437.4 80.1V80.9C437 81.2 436.5 81.3 435.9 81.3ZM441.2 81.3C440.4 81.3 439.7 81 439.2 80.5C438.7 80 438.5 79.3 438.5 78.4C438.5 77.5 438.7 76.7 439.2 76.2C439.7 75.7 440.3 75.4 441 75.4C441.7 75.4 442.3 75.6 442.7 76.1C443.1 76.6 443.3 77.2 443.3 78V78.5H439.4C439.4 79.2 439.6 79.7 439.9 80C440.2 80.3 440.7 80.5 441.3 80.5C441.9 80.5 442.5 80.4 443.1 80.1V80.9C442.8 81 442.5 81.1 442.2 81.2C441.9 81.3 441.5 81.3 441.2 81.3ZM440.9 76.1C440.4 76.1 440.1 76.3 439.8 76.6C439.5 76.9 439.4 77.3 439.3 77.8H442.3C442.3 77.2 442.2 76.8 441.9 76.6C441.7 76.2 441.4 76.1 440.9 76.1ZM448.4 79.6C448.4 80.1 448.2 80.5 447.8 80.8C447.4 81.1 446.9 81.2 446.1 81.2C445.3 81.2 444.7 81.1 444.3 80.8V80C444.6 80.1 444.9 80.3 445.2 80.3C445.5 80.4 445.8 80.4 446.1 80.4C446.5 80.4 446.9 80.3 447.1 80.2C447.3 80.1 447.5 79.8 447.5 79.5C447.5 79.3 447.4 79.1 447.2 78.9C447 78.7 446.6 78.5 446.1 78.3C445.6 78.1 445.2 77.9 445 77.8C444.8 77.7 444.6 77.5 444.5 77.3C444.4 77.1 444.3 76.9 444.3 76.6C444.3 76.1 444.5 75.8 444.9 75.5C445.3 75.2 445.8 75.1 446.5 75.1C447.1 75.1 447.7 75.2 448.3 75.5L448 76.2C447.4 76 446.9 75.9 446.4 75.9C446 75.9 445.7 76 445.5 76.1C445.3 76.2 445.2 76.4 445.2 76.6C445.2 76.8 445.2 76.9 445.3 77C445.4 77.1 445.5 77.2 445.7 77.3C445.9 77.4 446.2 77.5 446.7 77.7C447.4 77.9 447.8 78.2 448.1 78.4C448.4 78.6 448.4 79.2 448.4 79.6ZM453.5 79.6C453.5 80.1 453.3 80.5 452.9 80.8C452.5 81.1 452 81.2 451.2 81.2C450.4 81.2 449.8 81.1 449.4 80.8V80C449.7 80.1 450 80.3 450.3 80.3C450.6 80.4 450.9 80.4 451.2 80.4C451.6 80.4 452 80.3 452.2 80.2C452.4 80.1 452.6 79.8 452.6 79.5C452.6 79.3 452.5 79.1 452.3 78.9C452.1 78.7 451.7 78.5 451.2 78.3C450.7 78.1 450.3 77.9 450.1 77.8C449.9 77.7 449.7 77.5 449.6 77.3C449.5 77.1 449.4 76.9 449.4 76.6C449.4 76.1 449.6 75.8 450 75.5C450.4 75.2 450.9 75.1 451.6 75.1C452.2 75.1 452.8 75.2 453.4 75.5L453.1 76.2C452.5 76 452 75.9 451.5 75.9C451.1 75.9 450.8 76 450.6 76.1C450.4 76.2 450.3 76.4 450.3 76.6C450.3 76.8 450.3 76.9 450.4 77C450.5 77.1 450.6 77.2 450.8 77.3C451 77.4 451.3 77.5 451.8 77.7C452.5 77.9 452.9 78.2 453.2 78.4C453.4 78.9 453.5 79.2 453.5 79.6Z" fill="white"/>
<path id="Vector 16" d="M420.8 94.2H416.6V86.6H420.8V87.4H417.5V89.9H420.6V90.7H417.5V93.5H420.8V94.2ZM426.3 94.2V90.5C426.3 90 426.2 89.7 426 89.5C425.8 89.3 425.5 89.2 425 89.2C424.4 89.2 424 89.4 423.7 89.7C423.4 90 423.3 90.6 423.3 91.3V94.3H422.4V88.6H423.1L423.2 89.4C423.4 89.1 423.6 88.9 423.9 88.7C424.2 88.5 424.6 88.5 425 88.5C425.7 88.5 426.2 88.7 426.5 89C426.9 89.3 427 89.9 427 90.6V94.3H426.3V94.2ZM433.6 88.5V89L432.6 89.1C432.7 89.2 432.8 89.4 432.8 89.6C432.9 89.8 432.9 90 432.9 90.3C432.9 90.9 432.7 91.3 432.3 91.6C431.9 91.9 431.4 92.1 430.7 92.1C430.5 92.1 430.4 92.1 430.2 92.1C429.8 92.3 429.7 92.5 429.7 92.8C429.7 93 429.8 93.1 429.9 93.1C430 93.2 430.2 93.2 430.6 93.2H431.6C432.2 93.2 432.7 93.3 433 93.6C433.3 93.9 433.5 94.2 433.5 94.7C433.5 95.3 433.2 95.8 432.7 96.1C432.2 96.4 431.5 96.6 430.5 96.6C429.8 96.6 429.2 96.5 428.8 96.2C428.4 95.9 428.2 95.5 428.2 95C428.2 94.7 428.3 94.4 428.5 94.1C428.7 93.9 429 93.7 429.4 93.6C429.3 93.5 429.1 93.4 429 93.3C428.9 93.2 428.9 93 428.9 92.8C428.9 92.6 429 92.4 429.1 92.3C429.2 92.2 429.4 92 429.6 91.8C429.3 91.7 429.1 91.5 428.9 91.2C428.7 90.9 428.6 90.6 428.6 90.2C428.6 89.6 428.8 89.1 429.2 88.8C429.6 88.5 430.1 88.3 430.8 88.3C431.1 88.3 431.4 88.3 431.6 88.4H433.6V88.5ZM429 95.1C429 95.4 429.1 95.6 429.4 95.8C429.7 96 430 96 430.5 96C431.2 96 431.7 95.9 432.1 95.7C432.5 95.5 432.6 95.2 432.6 94.8C432.6 94.5 432.5 94.3 432.3 94.2C432.1 94.1 431.8 94 431.2 94H430.2C429.8 94 429.5 94.1 429.3 94.3C429.1 94.5 429 94.8 429 95.1ZM429.5 90.3C429.5 90.7 429.6 91 429.8 91.2C430 91.4 430.3 91.5 430.7 91.5C431.5 91.5 432 91.1 432 90.3C432 89.4 431.6 89 430.7 89C430.3 89 430 89.1 429.8 89.3C429.6 89.5 429.5 89.9 429.5 90.3ZM435.6 94.2H434.7V88.5H435.6V94.2ZM434.7 86.9C434.7 86.7 434.7 86.6 434.8 86.5C434.9 86.4 435 86.4 435.2 86.4C435.3 86.4 435.4 86.4 435.5 86.5C435.6 86.6 435.7 86.7 435.7 86.9C435.7 87.1 435.6 87.2 435.5 87.3C435.4 87.4 435.3 87.4 435.2 87.4C435.1 87.4 434.9 87.4 434.8 87.3C434.7 87.3 434.7 87.1 434.7 86.9ZM441.4 94.2V90.5C441.4 90 441.3 89.7 441.1 89.5C440.9 89.3 440.6 89.2 440.1 89.2C439.5 89.2 439.1 89.4 438.8 89.7C438.5 90 438.4 90.6 438.4 91.3V94.3H437.5V88.6H438.2L438.3 89.4C438.5 89.1 438.7 88.9 439 88.7C439.3 88.5 439.7 88.5 440.1 88.5C440.8 88.5 441.3 88.7 441.6 89C442 89.3 442.1 89.9 442.1 90.6V94.3H441.4V94.2ZM446.4 94.3C445.6 94.3 444.9 94 444.4 93.5C443.9 93 443.7 92.3 443.7 91.4C443.7 90.5 443.9 89.7 444.4 89.2C444.9 88.7 445.5 88.4 446.2 88.4C446.9 88.4 447.5 88.6 447.9 89.1C448.3 89.6 448.5 90.2 448.5 91V91.5H444.6C444.6 92.2 444.8 92.7 445.1 93C445.4 93.3 445.9 93.5 446.5 93.5C447.1 93.5 447.7 93.4 448.3 93.1V93.9C448 94 447.7 94.1 447.4 94.2C447.1 94.3 446.8 94.3 446.4 94.3ZM446.2 89.1C445.7 89.1 445.4 89.3 445.1 89.6C444.8 89.9 444.7 90.3 444.6 90.8H447.6C447.6 90.2 447.5 89.8 447.2 89.6C447 89.2 446.6 89.1 446.2 89.1ZM452.4 94.3C451.6 94.3 450.9 94 450.4 93.5C449.9 93 449.7 92.3 449.7 91.4C449.7 90.5 449.9 89.7 450.4 89.2C450.9 88.7 451.5 88.4 452.2 88.4C452.9 88.4 453.5 88.6 453.9 89.1C454.3 89.6 454.5 90.2 454.5 91V91.5H450.6C450.6 92.2 450.8 92.7 451.1 93C451.4 93.3 451.9 93.5 452.5 93.5C453.1 93.5 453.7 93.4 454.3 93.1V93.9C454 94 453.7 94.1 453.4 94.2C453.1 94.3 452.8 94.3 452.4 94.3ZM452.2 89.1C451.7 89.1 451.4 89.3 451.1 89.6C450.8 89.9 450.7 90.3 450.6 90.8H453.6C453.6 90.2 453.5 89.8 453.2 89.6C453 89.2 452.6 89.1 452.2 89.1ZM458.6 88.4C458.8 88.4 459.1 88.4 459.3 88.5L459.2 89.3C459 89.2 458.8 89.2 458.6 89.2C458.1 89.2 457.7 89.4 457.4 89.8C457.1 90.2 456.9 90.6 456.9 91.2V94.3H456V88.6H456.7L456.8 89.7C457 89.3 457.3 89 457.6 88.8C457.9 88.5 458.2 88.4 458.6 88.4ZM461.2 94.2H460.3V88.5H461.2V94.2ZM460.2 86.9C460.2 86.7 460.2 86.6 460.3 86.5C460.4 86.4 460.5 86.4 460.7 86.4C460.8 86.4 460.9 86.4 461 86.5C461.1 86.6 461.2 86.7 461.2 86.9C461.2 87.1 461.1 87.2 461 87.3C460.9 87.4 460.8 87.4 460.7 87.4C460.6 87.4 460.4 87.4 460.3 87.3C460.3 87.3 460.2 87.1 460.2 86.9ZM466.9 94.2V90.5C466.9 90 466.8 89.7 466.6 89.5C466.4 89.3 466.1 89.2 465.6 89.2C465 89.2 464.6 89.4 464.3 89.7C464 90 463.9 90.6 463.9 91.3V94.3H463V88.6H463.7L463.8 89.4C464 89.1 464.2 88.9 464.5 88.7C464.8 88.5 465.2 88.5 465.6 88.5C466.3 88.5 466.8 88.7 467.1 89C467.5 89.3 467.6 89.9 467.6 90.6V94.3H466.9V94.2ZM474.2 88.5V89L473.2 89.1C473.3 89.2 473.4 89.4 473.4 89.6C473.5 89.8 473.5 90 473.5 90.3C473.5 90.9 473.3 91.3 472.9 91.6C472.5 91.9 472 92.1 471.3 92.1C471.1 92.1 471 92.1 470.8 92.1C470.4 92.3 470.3 92.5 470.3 92.8C470.3 93 470.4 93.1 470.5 93.1C470.6 93.2 470.8 93.2 471.2 93.2H472.2C472.8 93.2 473.3 93.3 473.6 93.6C473.9 93.9 474.1 94.2 474.1 94.7C474.1 95.3 473.8 95.8 473.3 96.1C472.8 96.4 472.1 96.6 471.1 96.6C470.4 96.6 469.8 96.5 469.4 96.2C469 95.9 468.8 95.5 468.8 95C468.8 94.7 468.9 94.4 469.1 94.1C469.3 93.9 469.6 93.7 470 93.6C469.9 93.5 469.7 93.4 469.6 93.3C469.5 93.2 469.5 93 469.5 92.8C469.5 92.6 469.6 92.4 469.7 92.3C469.8 92.1 470 92 470.2 91.8C469.9 91.7 469.7 91.5 469.5 91.2C469.3 90.9 469.2 90.6 469.2 90.2C469.2 89.6 469.4 89.1 469.8 88.8C470.2 88.5 470.7 88.3 471.4 88.3C471.7 88.3 472 88.3 472.2 88.4H474.2V88.5ZM469.7 95.1C469.7 95.4 469.8 95.6 470.1 95.8C470.4 96 470.7 96 471.2 96C471.9 96 472.4 95.9 472.8 95.7C473.2 95.5 473.3 95.2 473.3 94.8C473.3 94.5 473.2 94.3 473 94.2C472.8 94.1 472.5 94 471.9 94H470.9C470.5 94 470.2 94.1 470 94.3C469.8 94.5 469.7 94.8 469.7 95.1ZM470.1 90.3C470.1 90.7 470.2 91 470.4 91.2C470.6 91.4 470.9 91.5 471.3 91.5C472.1 91.5 472.6 91.1 472.6 90.3C472.6 89.4 472.2 89 471.3 89C470.9 89 470.6 89.1 470.4 89.3C470.2 89.5 470.1 89.9 470.1 90.3Z" fill="white"/>
<path id="Vector 17" d="M149.8 255C149.8 255.8 149.5 256.4 149 256.8C148.5 257.2 147.7 257.4 146.8 257.4H145.9V260.4H145V252.8H147C148.8 252.7 149.8 253.5 149.8 255ZM145.8 256.6H146.6C147.4 256.6 148 256.5 148.3 256.2C148.7 255.9 148.8 255.5 148.8 255C148.8 254.5 148.6 254.1 148.3 253.9C148 253.7 147.5 253.5 146.8 253.5H145.8V256.6ZM152.1 260.4H151.2V252.3H152.1V260.4ZM157.4 260.4L157.2 259.6C156.9 260 156.6 260.2 156.4 260.3C156.1 260.4 155.8 260.5 155.3 260.5C154.7 260.5 154.3 260.4 154 260.1C153.7 259.8 153.5 259.4 153.5 258.9C153.5 257.8 154.4 257.1 156.3 257.1H157.3V256.8C157.3 256.4 157.2 256 157 255.8C156.8 255.6 156.5 255.5 156.1 255.5C155.6 255.5 155.1 255.6 154.5 255.9L154.2 255.2C154.5 255.1 154.8 254.9 155.1 254.9C155.4 254.8 155.8 254.8 156.1 254.8C156.8 254.8 157.3 255 157.6 255.3C157.9 255.6 158.1 256.1 158.1 256.8V260.7H157.4V260.4ZM155.5 259.7C156 259.7 156.5 259.6 156.8 259.3C157.1 259 157.3 258.6 157.3 258.1V257.6H156.4C155.7 257.6 155.2 257.7 154.9 257.9C154.6 258.1 154.4 258.4 154.4 258.8C154.4 259.1 154.5 259.4 154.7 259.5C154.9 259.7 155.1 259.7 155.5 259.7ZM161.7 259.7C161.9 259.7 162 259.7 162.1 259.7C162.2 259.7 162.4 259.7 162.4 259.6V260.3C162.3 260.3 162.2 260.4 162 260.4C161.8 260.4 161.7 260.4 161.5 260.4C160.4 260.4 159.8 259.8 159.8 258.6V255.2H159V254.8L159.8 254.4L160.2 253.2H160.7V254.5H162.4V255.2H160.7V258.6C160.7 258.9 160.8 259.2 160.9 259.4C161.2 259.7 161.4 259.7 161.7 259.7ZM166.2 255.3H164.7V260.3H163.8V255.3H162.8V254.9L163.8 254.6V254.3C163.8 252.9 164.4 252.2 165.6 252.2C165.9 252.2 166.3 252.3 166.7 252.4L166.5 253.1C166.2 253 165.9 252.9 165.6 252.9C165.3 252.9 165 253 164.9 253.2C164.7 253.4 164.7 253.8 164.7 254.2V254.6H166.2V255.3ZM172.1 257.5C172.1 258.4 171.9 259.2 171.4 259.7C170.9 260.2 170.3 260.5 169.4 260.5C168.9 260.5 168.5 260.4 168.1 260.1C167.7 259.9 167.4 259.5 167.2 259.1C167 258.7 166.9 258.1 166.9 257.5C166.9 256.6 167.1 255.8 167.6 255.3C168.1 254.8 168.7 254.5 169.5 254.5C170.3 254.5 170.9 254.8 171.4 255.3C171.9 255.9 172.1 256.6 172.1 257.5ZM167.8 257.5C167.8 258.2 167.9 258.8 168.2 259.2C168.5 259.6 168.9 259.8 169.5 259.8C170.1 259.8 170.5 259.6 170.8 259.2C171.1 258.8 171.2 258.3 171.2 257.5C171.2 256.8 171.1 256.2 170.8 255.9C170.5 255.5 170.1 255.3 169.5 255.3C168.9 255.3 168.5 255.5 168.2 255.9C167.9 256.2 167.8 256.8 167.8 257.5ZM176.3 254.5C176.5 254.5 176.8 254.5 177 254.6L176.9 255.4C176.7 255.3 176.5 255.3 176.3 255.3C175.8 255.3 175.4 255.5 175.1 255.9C174.8 256.3 174.6 256.7 174.6 257.3V260.4H173.7V254.7H174.4L174.5 255.8C174.7 255.4 175 255.1 175.3 254.9C175.6 254.6 175.9 254.5 176.3 254.5ZM185.3 260.4V256.7C185.3 256.2 185.2 255.9 185 255.7C184.8 255.5 184.5 255.4 184.1 255.4C183.6 255.4 183.2 255.6 182.9 255.9C182.6 256.2 182.5 256.7 182.5 257.3V260.5H181.6V256.8C181.6 256.3 181.5 256 181.3 255.8C181.1 255.6 180.8 255.5 180.4 255.5C179.9 255.5 179.5 255.7 179.2 256C179 256.3 178.8 256.9 178.8 257.6V260.6H178V254.9H178.7L178.8 255.7C179 255.4 179.2 255.2 179.5 255C179.8 254.8 180.1 254.8 180.5 254.8C181.4 254.8 182 255.1 182.3 255.8C182.5 255.5 182.7 255.3 183 255.1C183.3 254.9 183.7 254.8 184.1 254.8C184.7 254.8 185.2 255 185.5 255.3C185.8 255.6 186 256.2 186 256.9V260.6H185.3V260.4Z" fill="white"/>
<path id="Vector 18" d="M127.2 269.5C127.2 270.7 126.9 271.7 126.2 272.4C125.5 273.1 124.5 273.4 123.3 273.4H121.2V265.8H123.5C124.7 265.8 125.6 266.1 126.3 266.8C127 267.5 127.2 268.3 127.2 269.5ZM126.3 269.5C126.3 268.5 126.1 267.8 125.5 267.3C125 266.8 124.3 266.5 123.3 266.5H122V272.6H123.1C124.2 272.6 125 272.3 125.5 271.8C126 271.3 126.3 270.5 126.3 269.5ZM131.2 273.5C130.4 273.5 129.7 273.2 129.2 272.7C128.7 272.2 128.5 271.5 128.5 270.6C128.5 269.7 128.7 268.9 129.2 268.4C129.7 267.9 130.3 267.6 131 267.6C131.7 267.6 132.3 267.8 132.7 268.3C133.1 268.8 133.3 269.4 133.3 270.2V270.7H129.4C129.4 271.4 129.6 271.9 129.9 272.2C130.2 272.5 130.7 272.7 131.3 272.7C131.9 272.7 132.5 272.6 133.1 272.3V273.1C132.8 273.2 132.5 273.3 132.2 273.4C131.9 273.4 131.6 273.5 131.2 273.5ZM130.9 268.3C130.4 268.3 130.1 268.5 129.8 268.8C129.5 269.1 129.4 269.5 129.3 270H132.3C132.3 269.4 132.2 269 131.9 268.8C131.7 268.4 131.4 268.3 130.9 268.3ZM136 273.4L133.8 267.7H134.7L135.9 271.1C136.2 271.9 136.3 272.4 136.4 272.6C136.4 272.4 136.5 272 136.7 271.5C136.9 270.9 137.4 269.7 138.1 267.7H139L136.8 273.4H136ZM142.5 273.5C141.7 273.5 141 273.2 140.5 272.7C140 272.2 139.8 271.5 139.8 270.6C139.8 269.7 140 268.9 140.5 268.4C141 267.9 141.6 267.6 142.3 267.6C143 267.6 143.6 267.8 144 268.3C144.4 268.8 144.6 269.4 144.6 270.2V270.7H140.7C140.7 271.4 140.9 271.9 141.2 272.2C141.5 272.5 142 272.7 142.6 272.7C143.2 272.7 143.8 272.6 144.4 272.3V273.1C144.1 273.2 143.8 273.3 143.5 273.4C143.2 273.4 142.9 273.5 142.5 273.5ZM142.3 268.3C141.8 268.3 141.5 268.5 141.2 268.8C140.9 269.1 140.8 269.5 140.7 270H143.7C143.7 269.4 143.6 269 143.3 268.8C143.1 268.4 142.7 268.3 142.3 268.3ZM146.9 273.4H146V265.3H146.9V273.4ZM153.7 270.5C153.7 271.4 153.5 272.2 153 272.7C152.5 273.2 151.9 273.5 151 273.5C150.5 273.5 150.1 273.4 149.7 273.1C149.3 272.9 149 272.5 148.8 272.1C148.6 271.7 148.5 271.1 148.5 270.5C148.5 269.6 148.7 268.8 149.2 268.3C149.7 267.8 150.3 267.5 151.1 267.5C151.9 267.5 152.5 267.8 153 268.3C153.4 268.9 153.7 269.6 153.7 270.5ZM149.3 270.5C149.3 271.2 149.4 271.8 149.7 272.2C150 272.6 150.4 272.8 151 272.8C151.6 272.8 152 272.6 152.3 272.2C152.6 271.8 152.7 271.3 152.7 270.5C152.7 269.8 152.6 269.2 152.3 268.9C152 268.5 151.6 268.3 151 268.3C150.4 268.3 150 268.5 149.7 268.9C149.5 269.2 149.3 269.8 149.3 270.5ZM157.8 273.5C157.4 273.5 157.1 273.4 156.8 273.3C156.5 273.2 156.2 272.9 156 272.7C156 273 156.1 273.4 156.1 273.7V276H155.2V267.7H155.9L156 268.5C156.2 268.2 156.5 268 156.8 267.8C157.1 267.7 157.4 267.6 157.8 267.6C158.6 267.6 159.1 267.9 159.6 268.4C160 268.9 160.2 269.6 160.2 270.6C160.2 271.5 160 272.3 159.6 272.8C159.2 273.2 158.6 273.5 157.8 273.5ZM157.7 268.3C157.1 268.3 156.7 268.5 156.5 268.8C156.2 269.1 156.1 269.6 156.1 270.3V270.5C156.1 271.3 156.2 271.9 156.5 272.2C156.8 272.5 157.2 272.7 157.8 272.7C158.3 272.7 158.7 272.5 159 272.1C159.3 271.7 159.4 271.2 159.4 270.5C159.4 269.8 159.3 269.2 159 268.9C158.6 268.5 158.2 268.3 157.7 268.3ZM169 273.4V269.7C169 269.2 168.9 268.9 168.7 268.7C168.5 268.5 168.2 268.4 167.8 268.4C167.3 268.4 166.9 268.6 166.6 268.9C166.3 269.2 166.2 269.7 166.2 270.3V273.5H165.3V269.8C165.3 269.3 165.2 269 165 268.8C164.8 268.6 164.5 268.5 164.1 268.5C163.6 268.5 163.2 268.7 162.9 269C162.7 269.3 162.5 269.9 162.5 270.6V273.6H161.6V267.9H162.3L162.4 268.7C162.6 268.4 162.8 268.2 163.1 268C163.4 267.8 163.7 267.8 164.1 267.8C165 267.8 165.6 268.1 165.9 268.8C166.1 268.5 166.3 268.3 166.6 268.1C166.9 267.9 167.3 267.8 167.7 267.8C168.3 267.8 168.8 268 169.1 268.3C169.4 268.6 169.6 269.2 169.6 269.9V273.6H169V273.4ZM174 273.5C173.2 273.5 172.5 273.2 172 272.7C171.5 272.2 171.3 271.5 171.3 270.6C171.3 269.7 171.5 268.9 172 268.4C172.5 267.9 173.1 267.6 173.8 267.6C174.5 267.6 175.1 267.8 175.5 268.3C175.9 268.8 176.1 269.4 176.1 270.2V270.7H172.2C172.2 271.4 172.4 271.9 172.7 272.2C173 272.5 173.5 272.7 174.1 272.7C174.7 272.7 175.3 272.6 175.9 272.3V273.1C175.6 273.2 175.3 273.3 175 273.4C174.8 273.4 174.4 273.5 174 273.5ZM173.8 268.3C173.3 268.3 173 268.5 172.7 268.8C172.4 269.1 172.3 269.5 172.2 270H175.2C175.2 269.4 175.1 269 174.8 268.8C174.6 268.4 174.3 268.3 173.8 268.3ZM181.5 273.4V269.7C181.5 269.2 181.4 268.9 181.2 268.7C181 268.5 180.7 268.4 180.2 268.4C179.6 268.4 179.2 268.6 178.9 268.9C178.6 269.2 178.5 269.8 178.5 270.5V273.5H177.6V267.8H178.3L178.4 268.6C178.6 268.3 178.8 268.1 179.1 267.9C179.4 267.7 179.8 267.7 180.2 267.7C180.9 267.7 181.4 267.9 181.7 268.2C182.1 268.5 182.2 269.1 182.2 269.8V273.5H181.5V273.4ZM186 272.7C186.2 272.7 186.3 272.7 186.4 272.7C186.5 272.7 186.7 272.7 186.7 272.6V273.3C186.6 273.3 186.5 273.4 186.3 273.4C186.1 273.4 186 273.4 185.8 273.4C184.7 273.4 184.1 272.8 184.1 271.6V268.2H183.3V267.8L184.1 267.4L184.5 266.2H185V267.5H186.7V268.2H185V271.6C185 271.9 185.1 272.2 185.2 272.4C185.5 272.7 185.7 272.7 186 272.7Z" fill="white"/>
<path id="Vector 19" d="M420.9 258.3C420.9 259 420.7 259.5 420.2 259.9C419.7 260.3 419.1 260.5 418.2 260.5C417.3 260.5 416.6 260.4 416.1 260.1V259.3C416.4 259.4 416.8 259.5 417.1 259.6C417.5 259.7 417.8 259.7 418.2 259.7C418.8 259.7 419.2 259.6 419.5 259.4C419.8 259.2 420 258.9 420 258.5C420 258.2 419.9 258 419.8 257.8C419.7 257.6 419.5 257.5 419.3 257.3C419.1 257.2 418.7 257 418.2 256.8C417.5 256.5 417 256.2 416.7 255.9C416.4 255.6 416.2 255.1 416.2 254.5C416.2 253.9 416.4 253.5 416.9 253.1C417.3 252.7 417.9 252.6 418.7 252.6C419.5 252.6 420.1 252.7 420.8 253L420.5 253.8C419.9 253.5 419.3 253.4 418.7 253.4C418.2 253.4 417.9 253.5 417.6 253.7C417.3 253.9 417.2 254.2 417.2 254.5C417.2 254.8 417.2 255 417.3 255.1C417.4 255.3 417.6 255.4 417.8 255.6C418 255.7 418.4 255.9 418.8 256.1C419.6 256.4 420.2 256.7 420.5 257C420.7 257.4 420.9 257.8 420.9 258.3ZM427.2 257.5C427.2 258.4 427 259.2 426.5 259.7C426 260.2 425.4 260.5 424.5 260.5C424 260.5 423.6 260.4 423.2 260.1C422.8 259.9 422.5 259.5 422.3 259.1C422.1 258.7 422 258.1 422 257.5C422 256.6 422.2 255.8 422.7 255.3C423.2 254.8 423.8 254.5 424.6 254.5C425.4 254.5 426 254.8 426.5 255.3C427 255.9 427.2 256.6 427.2 257.5ZM422.9 257.5C422.9 258.2 423 258.8 423.3 259.2C423.6 259.6 424 259.8 424.6 259.8C425.2 259.8 425.6 259.6 425.9 259.2C426.2 258.8 426.3 258.3 426.3 257.5C426.3 256.8 426.2 256.2 425.9 255.9C425.6 255.5 425.2 255.3 424.6 255.3C424 255.3 423.6 255.5 423.3 255.9C423 256.2 422.9 256.8 422.9 257.5ZM431.3 255.3H429.8V260.3H429V255.3H428V254.9L429 254.6V254.3C429 252.9 429.6 252.2 430.8 252.2C431.1 252.2 431.5 252.3 431.9 252.4L431.7 253.1C431.4 253 431.1 252.9 430.8 252.9C430.5 252.9 430.2 253 430.1 253.2C429.9 253.4 429.9 253.8 429.9 254.2V254.6H431.4V255.3H431.3ZM434.2 259.7C434.4 259.7 434.5 259.7 434.6 259.7C434.7 259.7 434.9 259.7 434.9 259.6V260.3C434.8 260.3 434.7 260.4 434.5 260.4C434.3 260.4 434.2 260.4 434 260.4C432.9 260.4 432.3 259.8 432.3 258.6V255.2H431.5V254.8L432.3 254.4L432.7 253.2H433.2V254.5H434.9V255.2H433.2V258.6C433.2 258.9 433.3 259.2 433.4 259.4C433.7 259.7 433.9 259.7 434.2 259.7ZM440.8 260.4L439.8 257.1C439.7 256.9 439.6 256.4 439.4 255.7C439.3 256.3 439.1 256.8 439 257.1L437.9 260.4H436.9L435.4 254.7H436.3C436.7 256.1 436.9 257.2 437.1 258C437.3 258.7 437.4 259.2 437.4 259.5C437.4 259.3 437.5 259 437.6 258.7C437.7 258.4 437.8 258.1 437.8 257.9L438.8 254.6H439.7L440.7 257.9C440.9 258.5 441 259 441.1 259.4C441.1 259.3 441.2 259.1 441.2 258.8C441.3 258.5 441.6 257.1 442.3 254.6H443.2L441.6 260.3H440.8V260.4ZM447.9 260.4L447.7 259.6C447.4 260 447.1 260.2 446.9 260.3C446.6 260.4 446.3 260.5 445.8 260.5C445.2 260.5 444.8 260.4 444.5 260.1C444.2 259.8 444 259.4 444 258.9C444 257.8 444.9 257.1 446.8 257.1H447.8V256.8C447.8 256.4 447.7 256 447.5 255.8C447.3 255.6 447 255.5 446.6 255.5C446.1 255.5 445.6 255.6 445 255.9L444.7 255.2C445 255.1 445.3 254.9 445.6 254.9C445.9 254.8 446.3 254.8 446.6 254.8C447.3 254.8 447.8 255 448.1 255.3C448.4 255.6 448.6 256.1 448.6 256.8V260.7H447.9V260.4ZM446 259.7C446.5 259.7 447 259.6 447.3 259.3C447.6 259 447.8 258.6 447.8 258.1V257.6H446.9C446.2 257.6 445.7 257.7 445.4 257.9C445.1 258.1 444.9 258.4 444.9 258.8C444.9 259.1 445 259.4 445.2 259.5C445.4 259.7 445.6 259.7 446 259.7ZM452.9 254.5C453.1 254.5 453.4 254.5 453.6 254.6L453.5 255.4C453.3 255.3 453.1 255.3 452.9 255.3C452.4 255.3 452 255.5 451.7 255.9C451.4 256.3 451.2 256.7 451.2 257.3V260.4H450.3V254.7H451L451.1 255.8C451.3 255.4 451.6 255.1 451.9 254.9C452.3 254.6 452.6 254.5 452.9 254.5ZM457.1 260.5C456.3 260.5 455.6 260.2 455.1 259.7C454.6 259.2 454.4 258.5 454.4 257.6C454.4 256.7 454.6 255.9 455.1 255.4C455.6 254.9 456.2 254.6 456.9 254.6C457.6 254.6 458.2 254.8 458.6 255.3C459 255.8 459.2 256.4 459.2 257.2V257.7H455.3C455.3 258.4 455.5 258.9 455.8 259.2C456.1 259.5 456.6 259.7 457.2 259.7C457.8 259.7 458.4 259.6 459 259.3V260.1C458.7 260.2 458.4 260.3 458.1 260.4C457.8 260.4 457.5 260.5 457.1 260.5ZM456.9 255.3C456.4 255.3 456.1 255.5 455.8 255.8C455.5 256.1 455.4 256.5 455.3 257H458.3C458.3 256.4 458.2 256 457.9 255.8C457.7 255.4 457.3 255.3 456.9 255.3Z" fill="white"/>
<path id="Vector 20" d="M422.7 269.5C422.7 270.7 422.4 271.7 421.7 272.4C421 273.1 420 273.4 418.8 273.4H416.7V265.8H419C420.2 265.8 421.1 266.1 421.8 266.8C422.5 267.5 422.7 268.3 422.7 269.5ZM421.7 269.5C421.7 268.5 421.5 267.8 420.9 267.3C420.4 266.8 419.7 266.5 418.7 266.5H417.4V272.6H418.5C419.6 272.6 420.4 272.3 420.9 271.8C421.5 271.3 421.7 270.5 421.7 269.5ZM426.6 273.5C425.8 273.5 425.1 273.2 424.6 272.7C424.1 272.2 423.9 271.5 423.9 270.6C423.9 269.7 424.1 268.9 424.6 268.4C425.1 267.9 425.7 267.6 426.4 267.6C427.1 267.6 427.7 267.8 428.1 268.3C428.5 268.8 428.7 269.4 428.7 270.2V270.7H424.8C424.8 271.4 425 271.9 425.3 272.2C425.6 272.5 426.1 272.7 426.7 272.7C427.3 272.7 427.9 272.6 428.5 272.3V273.1C428.2 273.2 427.9 273.3 427.6 273.4C427.4 273.4 427 273.5 426.6 273.5ZM426.4 268.3C425.9 268.3 425.6 268.5 425.3 268.8C425 269.1 424.9 269.5 424.8 270H427.8C427.8 269.4 427.7 269 427.4 268.8C427.2 268.4 426.9 268.3 426.4 268.3ZM431.5 273.4L429.3 267.7H430.2L431.4 271.1C431.7 271.9 431.8 272.4 431.9 272.6C431.9 272.4 432 272 432.2 271.5C432.4 270.9 432.9 269.7 433.6 267.7H434.5L432.3 273.4H431.5ZM438 273.5C437.2 273.5 436.5 273.2 436 272.7C435.5 272.2 435.3 271.5 435.3 270.6C435.3 269.7 435.5 268.9 436 268.4C436.5 267.9 437.1 267.6 437.8 267.6C438.5 267.6 439.1 267.8 439.5 268.3C439.9 268.8 440.1 269.4 440.1 270.2V270.7H436.2C436.2 271.4 436.4 271.9 436.7 272.2C437 272.5 437.5 272.7 438.1 272.7C438.7 272.7 439.3 272.6 439.9 272.3V273.1C439.6 273.2 439.3 273.3 439 273.4C438.7 273.4 438.3 273.5 438 273.5ZM437.7 268.3C437.2 268.3 436.9 268.5 436.6 268.8C436.3 269.1 436.2 269.5 436.1 270H439.1C439.1 269.4 439 269 438.7 268.8C438.5 268.4 438.2 268.3 437.7 268.3ZM442.4 273.4H441.5V265.3H442.4V273.4ZM449.2 270.5C449.2 271.4 449 272.2 448.5 272.7C448 273.2 447.4 273.5 446.5 273.5C446 273.5 445.6 273.4 445.2 273.1C444.8 272.9 444.5 272.5 444.3 272.1C444.1 271.7 444 271.1 444 270.5C444 269.6 444.2 268.8 444.7 268.3C445.2 267.8 445.8 267.5 446.6 267.5C447.4 267.5 448 267.8 448.5 268.3C448.9 268.9 449.2 269.6 449.2 270.5ZM444.8 270.5C444.8 271.2 444.9 271.8 445.2 272.2C445.5 272.6 445.9 272.8 446.5 272.8C447.1 272.8 447.5 272.6 447.8 272.2C448.1 271.8 448.2 271.3 448.2 270.5C448.2 269.8 448.1 269.2 447.8 268.9C447.5 268.5 447.1 268.3 446.5 268.3C445.9 268.3 445.5 268.5 445.2 268.9C445 269.2 444.8 269.8 444.8 270.5ZM453.3 273.5C452.9 273.5 452.6 273.4 452.3 273.3C452 273.2 451.7 272.9 451.5 272.7H451.4C451.4 273 451.5 273.4 451.5 273.7V276H450.6V267.7H451.3L451.4 268.5C451.6 268.2 451.9 268 452.2 267.8C452.5 267.7 452.8 267.6 453.2 267.6C454 267.6 454.5 267.9 455 268.4C455.4 268.9 455.6 269.6 455.6 270.6C455.6 271.5 455.4 272.3 455 272.8C454.6 273.2 454.1 273.5 453.3 273.5ZM453.2 268.3C452.6 268.3 452.2 268.5 452 268.8C451.7 269.1 451.6 269.6 451.6 270.3V270.5C451.6 271.3 451.7 271.9 452 272.2C452.3 272.5 452.7 272.7 453.3 272.7C453.8 272.7 454.2 272.5 454.5 272.1C454.8 271.7 454.9 271.2 454.9 270.5C454.9 269.8 454.8 269.2 454.5 268.9C454.1 268.5 453.7 268.3 453.2 268.3ZM464.5 273.4V269.7C464.5 269.2 464.4 268.9 464.2 268.7C464 268.5 463.7 268.4 463.3 268.4C462.8 268.4 462.4 268.6 462.1 268.9C461.8 269.2 461.7 269.7 461.7 270.3V273.5H460.8V269.8C460.8 269.3 460.7 269 460.5 268.8C460.3 268.6 460 268.5 459.6 268.5C459.1 268.5 458.7 268.7 458.4 269C458.2 269.3 458 269.9 458 270.6V273.6H457.1V267.9H457.8L457.9 268.7C458.1 268.4 458.3 268.2 458.6 268C458.9 267.8 459.2 267.8 459.6 267.8C460.5 267.8 461.1 268.1 461.4 268.8C461.6 268.5 461.8 268.3 462.1 268.1C462.4 267.9 462.8 267.8 463.2 267.8C463.8 267.8 464.3 268 464.6 268.3C464.9 268.6 465.1 269.2 465.1 269.9V273.6H464.5V273.4ZM469.5 273.5C468.7 273.5 468 273.2 467.5 272.7C467 272.2 466.8 271.5 466.8 270.6C466.8 269.7 467 268.9 467.5 268.4C468 267.9 468.6 267.6 469.3 267.6C470 267.6 470.6 267.8 471 268.3C471.4 268.8 471.6 269.4 471.6 270.2V270.7H467.7C467.7 271.4 467.9 271.9 468.2 272.2C468.5 272.5 469 272.7 469.6 272.7C470.2 272.7 470.8 272.6 471.4 272.3V273.1C471.1 273.2 470.8 273.3 470.5 273.4C470.2 273.4 469.9 273.5 469.5 273.5ZM469.3 268.3C468.8 268.3 468.5 268.5 468.2 268.8C467.9 269.1 467.8 269.5 467.7 270H470.7C470.7 269.4 470.6 269 470.3 268.8C470.1 268.4 469.7 268.3 469.3 268.3ZM477 273.4V269.7C477 269.2 476.9 268.9 476.7 268.7C476.5 268.5 476.2 268.4 475.7 268.4C475.1 268.4 474.7 268.6 474.4 268.9C474.1 269.2 474 269.8 474 270.5V273.5H473.1V267.8H473.8L473.9 268.6C474.1 268.3 474.3 268.1 474.6 267.9C474.9 267.7 475.3 267.7 475.7 267.7C476.4 267.7 476.9 267.9 477.2 268.2C477.6 268.5 477.7 269.1 477.7 269.8V273.5H477V273.4ZM481.5 272.7C481.7 272.7 481.8 272.7 481.9 272.7C482 272.7 482.2 272.7 482.2 272.6V273.3C482.1 273.3 482 273.4 481.8 273.4C481.6 273.4 481.5 273.4 481.3 273.4C480.2 273.4 479.6 272.8 479.6 271.6V268.2H478.8V267.8L479.6 267.4L480 266.2H480.5V267.5H482.2V268.2H480.5V271.6C480.5 271.9 480.6 272.2 480.7 272.4C481 272.7 481.2 272.7 481.5 272.7Z" fill="white"/>
</g>
</g>
</svg>
