<svg width="610" height="390" viewBox="0 0 610 390" fill="none" xmlns="http://www.w3.org/2000/svg">
<path d="M306 80.4L419.7 197L305 297.3L256.3 194.1L306 80.4Z" fill="#BBC63D" fill-opacity="0.2"/>
<path d="M306 80.4L419.7 197L305 297.3L256.3 194.1L306 80.4Z" stroke="#BAB306" stroke-miterlimit="10" stroke-linejoin="round" stroke-dasharray="1 1"/>
<path d="M305.7 50.8V336.1" stroke="#FAFF00" stroke-width="2" stroke-miterlimit="10" stroke-linejoin="round"/>
<path d="M305.7 50.8L307.9 53L305.7 46.8L303.5 53L305.7 50.8Z" fill="#FAFF00" stroke="#FAFF00" stroke-width="2" stroke-miterlimit="10"/>
<path d="M305.7 336.1L303.5 333.9L305.7 340.1L307.9 333.9L305.7 336.1Z" fill="#FAFF00" stroke="#FAFF00" stroke-width="2" stroke-miterlimit="10"/>
<path d="M123.6 195H487.7" stroke="#FAFF00" stroke-width="2" stroke-miterlimit="10" stroke-linejoin="round"/>
<path d="M123.6 195L125.8 192.8L119.6 195L125.8 197.2L123.6 195Z" fill="#FAFF00" stroke="#FAFF00" stroke-width="2" stroke-miterlimit="10"/>
<path d="M487.7 195L485.5 197.2L491.7 195L485.5 192.8L487.7 195Z" fill="#FAFF00" stroke="#FAFF00" stroke-width="2" stroke-miterlimit="10"/>
<path d="M281.7 24.8H284.6C285.7 24.8 286.6 25 287.2 25.5C287.8 26 288.1 26.7 288.1 27.9C288.1 28.6 288 29.2 287.7 29.6C287.4 30 287 30.3 286.4 30.3C287.8 30.6 288.5 31.5 288.5 33.2C288.5 34.3 288.2 35.2 287.7 35.8C287.1 36.4 286.3 36.7 285.2 36.7H281.8V24.8H281.7ZM284.6 29.7C285.2 29.7 285.7 29.6 285.9 29.3C286.1 29 286.2 28.6 286.2 27.9C286.2 27.3 286 26.9 285.7 26.7C285.4 26.5 284.9 26.4 284.2 26.4H283.8V29.7H284.6ZM284.7 35.2C285.3 35.2 285.8 35 286 34.7C286.2 34.4 286.4 33.9 286.4 33.2C286.4 32.5 286.3 32 286 31.6C285.7 31.3 285.3 31.1 284.7 31.1H283.9V35.1H284.7V35.2ZM291.1 36.8C290.6 36.8 290.3 36.6 290 36.3C289.8 35.9 289.7 35.5 289.7 35V28.3H291.7V34.7C291.7 35 291.7 35.2 291.8 35.3C291.9 35.4 292 35.5 292.3 35.5C292.5 35.5 292.8 35.4 293.2 35.1V28.3H295.2V36.8H293.2V36C292.4 36.5 291.8 36.8 291.1 36.8ZM298.9 36.8C298.2 36.8 297.6 36.6 297.1 36.2C296.6 35.8 296.3 35.3 296.1 34.5L297.6 33.9C297.8 34.8 298.2 35.3 298.8 35.3C299 35.3 299.2 35.2 299.3 35.1C299.4 35 299.5 34.8 299.5 34.6C299.5 34.4 299.4 34.2 299.3 34C299.2 33.8 298.9 33.6 298.6 33.3L297.6 32.4C297.2 32 296.9 31.7 296.6 31.4C296.4 31.1 296.3 30.7 296.3 30.2C296.3 29.5 296.5 29 297 28.6C297.5 28.2 298 28 298.7 28C299.4 28 299.9 28.2 300.3 28.6C300.7 29 301 29.5 301.1 30.2L299.8 30.8C299.7 30.4 299.6 30.1 299.4 29.8C299.2 29.5 299 29.4 298.7 29.4C298.5 29.4 298.3 29.5 298.2 29.6C298.1 29.7 298 29.9 298 30.1C298 30.3 298.1 30.4 298.2 30.6C298.3 30.8 298.5 31 298.8 31.2L299.8 32.1C300.2 32.5 300.6 32.8 300.8 33.2C301 33.5 301.2 34 301.2 34.4C301.2 35.1 301 35.7 300.5 36.1C300.2 36.6 299.6 36.8 298.9 36.8ZM302.6 25.2H304.6V26.9H302.6V25.2ZM302.6 28.2H304.6V36.7H302.6V28.2ZM306.1 28.2H308.1V29C308.8 28.4 309.5 28 310.2 28C310.7 28 311 28.2 311.3 28.5C311.5 28.9 311.7 29.3 311.7 29.8V36.5H309.7V30.2C309.7 29.9 309.7 29.7 309.6 29.6C309.5 29.5 309.4 29.4 309.1 29.4C308.9 29.4 308.6 29.5 308.2 29.8V36.5H306.2V28.2H306.1ZM315.6 36.8C314.7 36.8 314 36.5 313.5 36C313.1 35.5 312.8 34.7 312.8 33.7V31.2C312.8 30.2 313 29.4 313.5 28.9C313.9 28.4 314.6 28.1 315.6 28.1C316.6 28.1 317.2 28.4 317.6 28.9C318 29.4 318.2 30.3 318.2 31.3V32.5H314.8V34.2C314.8 34.6 314.9 34.9 315 35.1C315.1 35.3 315.3 35.4 315.6 35.4C315.8 35.4 316 35.3 316.1 35.1C316.2 34.9 316.3 34.6 316.3 34.3V33.6H318.2V34.2C318.2 35.1 318 35.7 317.5 36.2C317.1 36.6 316.5 36.8 315.6 36.8ZM316.4 31.6V30.8C316.4 30.4 316.3 30 316.2 29.9C316.1 29.7 315.9 29.6 315.6 29.6C315.3 29.6 315.1 29.7 315 29.9C314.9 30.1 314.8 30.5 314.8 31V31.6H316.4ZM321.9 36.8C321.2 36.8 320.6 36.6 320.1 36.2C319.6 35.8 319.3 35.3 319.1 34.5L320.6 33.9C320.8 34.8 321.2 35.3 321.8 35.3C322 35.3 322.2 35.2 322.3 35.1C322.4 35 322.5 34.8 322.5 34.6C322.5 34.4 322.4 34.2 322.3 34C322.2 33.8 321.9 33.6 321.6 33.3L320.6 32.4C320.2 32 319.9 31.7 319.6 31.4C319.4 31.1 319.3 30.7 319.3 30.2C319.3 29.5 319.5 29 320 28.6C320.5 28.2 321 28 321.7 28C322.4 28 322.9 28.2 323.3 28.6C323.7 29 324 29.5 324.1 30.2L322.8 30.8C322.7 30.4 322.6 30.1 322.4 29.8C322.2 29.5 322 29.4 321.7 29.4C321.5 29.4 321.3 29.5 321.2 29.6C321.1 29.7 321 29.9 321 30.1C321 30.3 321.1 30.4 321.2 30.6C321.3 30.8 321.5 31 321.8 31.2L322.8 32.1C323.2 32.5 323.6 32.8 323.8 33.2C324 33.5 324.2 34 324.2 34.4C324.2 35.1 324 35.7 323.5 36.1C323.2 36.6 322.6 36.8 321.9 36.8ZM327.8 36.8C327.1 36.8 326.5 36.6 326 36.2C325.5 35.8 325.2 35.3 325 34.5L326.5 33.9C326.7 34.8 327.1 35.3 327.7 35.3C327.9 35.3 328.1 35.2 328.2 35.1C328.3 35 328.4 34.8 328.4 34.6C328.4 34.4 328.3 34.2 328.2 34C328.1 33.8 327.8 33.6 327.5 33.3L326.5 32.4C326.1 32 325.8 31.7 325.5 31.4C325.3 31.1 325.2 30.7 325.2 30.2C325.2 29.5 325.4 29 325.9 28.6C326.4 28.2 326.9 28 327.6 28C328.3 28 328.8 28.2 329.2 28.6C329.6 29 329.9 29.5 330 30.2L328.7 30.8C328.6 30.4 328.5 30.1 328.3 29.8C328.1 29.6 327.9 29.4 327.6 29.4C327.4 29.4 327.2 29.5 327.1 29.6C327 29.7 326.9 29.9 326.9 30.1C326.9 30.3 327 30.4 327.1 30.6C327.2 30.8 327.4 31 327.7 31.2L328.7 32.1C329.1 32.5 329.5 32.8 329.7 33.2C329.9 33.5 330.1 34 330.1 34.4C330.1 35.1 329.9 35.7 329.4 36.1C329.1 36.6 328.5 36.8 327.8 36.8Z" fill="white"/>
<path d="M512.3 187.4H517.3V188.9H514.5V192.3H516.7V193.8H514.5V197.7H517.4V199.2H512.4V187.4H512.3ZM519.6 194.7L517.8 190.8H519.8L520.9 193.1L521.8 190.8H523.5L521.7 195L523.6 199.3H521.6L520.4 196.7L519.4 199.3H517.7L519.6 194.7ZM527.1 199.4C526.2 199.4 525.5 199.1 525 198.6C524.6 198.1 524.3 197.3 524.3 196.3V193.8C524.3 192.8 524.5 192 525 191.5C525.4 191 526.1 190.7 527.1 190.7C528.1 190.7 528.7 191 529.1 191.5C529.5 192 529.7 192.9 529.7 193.9V195.1H526.3V196.8C526.3 197.2 526.4 197.5 526.5 197.7C526.6 197.9 526.8 198 527.1 198C527.3 198 527.5 197.9 527.6 197.7C527.7 197.5 527.8 197.2 527.8 196.9V196.2H529.7V196.8C529.7 197.7 529.5 198.3 529 198.8C528.6 199.2 527.9 199.4 527.1 199.4ZM527.8 194.2V193.4C527.8 193 527.7 192.6 527.6 192.5C527.5 192.3 527.3 192.2 527 192.2C526.7 192.2 526.5 192.3 526.4 192.5C526.3 192.7 526.2 193.1 526.2 193.6V194.2H527.8ZM533.6 199.4C532.7 199.4 532 199.1 531.5 198.6C531.1 198.1 530.9 197.3 530.9 196.3V193.7C530.9 192.7 531.1 191.9 531.5 191.4C531.9 190.9 532.6 190.6 533.6 190.6C534.5 190.6 535.2 190.8 535.6 191.3C536 191.7 536.2 192.4 536.2 193.3V194H534.3V193.3C534.3 192.9 534.2 192.5 534.1 192.4C534 192.2 533.8 192.2 533.6 192.2C533.3 192.2 533.1 192.3 533 192.5C532.9 192.7 532.8 193.1 532.8 193.6V196.7C532.8 197.2 532.9 197.6 533 197.8C533.1 198 533.3 198.1 533.6 198.1C533.9 198.1 534.1 198 534.1 197.8C534.2 197.6 534.3 197.3 534.3 196.9V196H536.2V196.8C536.2 197.7 536 198.3 535.6 198.8C535.1 199.2 534.5 199.4 533.6 199.4ZM538.9 199.4C538.4 199.4 538.1 199.2 537.8 198.9C537.6 198.5 537.5 198.1 537.5 197.6V190.9H539.5V197.3C539.5 197.6 539.5 197.8 539.6 197.9C539.7 198 539.8 198.1 540.1 198.1C540.3 198.1 540.6 198 541 197.7V190.9H543V199.4H541V198.6C540.3 199.1 539.6 199.4 538.9 199.4ZM546.9 199.4C546.1 199.4 545.6 199.2 545.3 198.8C545 198.4 544.8 197.9 544.8 197.1V192H544V190.7H544.8V188.2H546.8V190.7H548.1V192H546.8V196.9C546.8 197.2 546.9 197.4 547 197.5C547.1 197.6 547.3 197.7 547.6 197.7C547.8 197.7 548 197.7 548.2 197.7V199.2C547.8 199.4 547.4 199.4 546.9 199.4ZM549.4 187.8H551.4V189.5H549.4V187.8ZM549.4 190.8H551.4V199.3H549.4V190.8ZM555.5 199.4C554.6 199.4 553.9 199.2 553.5 198.7C553.1 198.2 552.8 197.5 552.8 196.5V193.7C552.8 192.7 553 192 553.5 191.5C554 191 554.6 190.7 555.5 190.7C556.4 190.7 557.1 191 557.5 191.5C558 192 558.2 192.7 558.2 193.7V196.5C558.2 197.5 558 198.2 557.5 198.7C557.1 199.2 556.4 199.4 555.5 199.4ZM555.5 198.1C555.8 198.1 556 198 556.1 197.7C556.2 197.5 556.3 197.1 556.3 196.6V193.5C556.3 193 556.2 192.7 556.1 192.4C556 192.2 555.8 192 555.5 192C555.2 192 555 192.1 554.9 192.4C554.8 192.6 554.8 193 554.8 193.5V196.6C554.8 197.1 554.8 197.4 554.9 197.7C555 197.9 555.2 198.1 555.5 198.1ZM559.6 190.8H561.6V191.6C562.3 191 563 190.6 563.7 190.6C564.2 190.6 564.5 190.8 564.8 191.1C565 191.5 565.2 191.9 565.2 192.4V199.1H563.2V193C563.2 192.7 563.2 192.5 563.1 192.4C563 192.3 562.9 192.2 562.6 192.2C562.4 192.2 562.1 192.3 561.7 192.6V199.3H559.7V190.8H559.6Z" fill="white"/>
<path d="M42.1 187.4H44.2V199.3H42.1V187.4ZM46 190.8H48V191.6C48.7 191 49.4 190.6 50.1 190.6C50.6 190.6 50.9 190.8 51.2 191.1C51.4 191.5 51.6 191.9 51.6 192.4V199.1H49.6V193C49.6 192.7 49.6 192.5 49.5 192.4C49.4 192.3 49.3 192.2 49 192.2C48.8 192.2 48.5 192.3 48.1 192.6V199.3H46.1V190.8H46ZM52.9 190.8H54.9V191.6C55.6 191 56.3 190.6 57 190.6C57.5 190.6 57.8 190.8 58.1 191.1C58.3 191.5 58.5 191.9 58.5 192.4V199.1H56.5V193C56.5 192.7 56.5 192.5 56.4 192.4C56.3 192.3 56.2 192.2 55.9 192.2C55.7 192.2 55.4 192.3 55 192.6V199.3H53V190.8H52.9ZM62.4 199.4C61.5 199.4 60.8 199.2 60.4 198.7C60 198.2 59.7 197.5 59.7 196.5V193.7C59.7 192.7 59.9 192 60.4 191.5C60.9 191 61.5 190.7 62.4 190.7C63.3 190.7 64 191 64.4 191.5C64.9 192 65.1 192.7 65.1 193.7V196.5C65.1 197.5 64.9 198.2 64.4 198.7C64 199.2 63.3 199.4 62.4 199.4ZM62.5 198.1C62.8 198.1 63 198 63.1 197.7C63.2 197.5 63.3 197.1 63.3 196.6V193.5C63.3 193 63.2 192.7 63.1 192.4C63 192.2 62.8 192 62.5 192C62.2 192 62 192.1 61.9 192.4C61.8 192.6 61.8 193 61.8 193.5V196.6C61.8 197.1 61.8 197.4 61.9 197.7C61.9 197.9 62.1 198.1 62.5 198.1ZM66 190.8H67.9L68.8 196.9L69.7 190.8H71.6L69.9 199.3H67.7L66 190.8ZM74.1 199.4C73.7 199.4 73.4 199.3 73.1 199.1C72.8 198.9 72.6 198.7 72.5 198.4C72.4 198.1 72.3 197.8 72.3 197.4C72.3 196.7 72.5 196.2 72.8 195.8C73.1 195.4 73.5 195 73.9 194.8C74.4 194.6 75 194.3 75.7 194V193.3C75.7 192.9 75.7 192.6 75.6 192.5C75.5 192.3 75.3 192.2 75.1 192.2C74.7 192.2 74.4 192.5 74.4 193.1V193.6L72.5 193.5C72.5 192.5 72.8 191.8 73.2 191.3C73.7 190.8 74.3 190.6 75.3 190.6C76.1 190.6 76.7 190.8 77.1 191.3C77.5 191.8 77.7 192.4 77.7 193.2V197.1C77.7 197.7 77.7 198.4 77.8 199.2H76C75.9 198.7 75.8 198.3 75.8 198C75.7 198.4 75.5 198.7 75.2 199C74.9 199.3 74.5 199.4 74.1 199.4ZM74.8 198C75 198 75.1 197.9 75.3 197.8C75.5 197.7 75.6 197.5 75.7 197.4V195C75.2 195.3 74.8 195.6 74.5 195.9C74.2 196.2 74.1 196.5 74.1 196.9C74.1 197.2 74.2 197.5 74.3 197.7C74.5 197.9 74.6 198 74.8 198ZM81.5 199.4C80.7 199.4 80.2 199.2 79.9 198.8C79.6 198.4 79.4 197.9 79.4 197.1V192H78.6V190.7H79.4V188.2H81.4V190.7H82.7V192H81.4V196.9C81.4 197.2 81.5 197.4 81.6 197.5C81.7 197.6 81.9 197.7 82.2 197.7C82.4 197.7 82.6 197.7 82.8 197.7V199.2C82.4 199.4 82 199.4 81.5 199.4ZM84 187.8H86V189.5H84V187.8ZM84 190.8H86V199.3H84V190.8ZM90.2 199.4C89.3 199.4 88.6 199.2 88.2 198.7C87.8 198.2 87.5 197.5 87.5 196.5V193.7C87.5 192.7 87.7 192 88.2 191.5C88.7 191 89.3 190.7 90.2 190.7C91.1 190.7 91.8 191 92.2 191.5C92.7 192 92.9 192.7 92.9 193.7V196.5C92.9 197.5 92.7 198.2 92.2 198.7C91.7 199.2 91.1 199.4 90.2 199.4ZM90.2 198.1C90.5 198.1 90.7 198 90.8 197.7C90.9 197.5 91 197.1 91 196.6V193.5C91 193 90.9 192.7 90.8 192.4C90.7 192.2 90.5 192 90.2 192C89.9 192 89.7 192.1 89.6 192.4C89.5 192.6 89.5 193 89.5 193.5V196.6C89.5 197.1 89.5 197.4 89.6 197.7C89.7 197.9 89.9 198.1 90.2 198.1ZM94.3 190.8H96.3V191.6C97 191 97.7 190.6 98.4 190.6C98.9 190.6 99.2 190.8 99.5 191.1C99.7 191.5 99.9 191.9 99.9 192.4V199.1H97.9V193C97.9 192.7 97.9 192.5 97.8 192.4C97.7 192.3 97.6 192.2 97.3 192.2C97.1 192.2 96.8 192.3 96.4 192.6V199.3H94.4V190.8H94.3Z" fill="white"/>
<path d="M276.1 353.2H274.2V351.6H280.1V353.2H278.3V363.5H276.1V353.2ZM283.6 363.6C282.7 363.6 282 363.3 281.5 362.8C281.1 362.3 280.8 361.5 280.8 360.5V358C280.8 357 281 356.2 281.5 355.7C281.9 355.2 282.6 354.9 283.6 354.9C284.6 354.9 285.2 355.2 285.6 355.7C286 356.2 286.2 357.1 286.2 358.1V359.3H282.8V361C282.8 361.4 282.9 361.7 283 361.9C283.1 362.1 283.3 362.2 283.6 362.2C283.9 362.2 284 362.1 284.1 361.9C284.2 361.7 284.3 361.4 284.3 361.1V360.4H286.2V361C286.2 361.9 286 362.5 285.5 363C285.1 363.4 284.5 363.6 283.6 363.6ZM284.4 358.4V357.6C284.4 357.2 284.3 356.8 284.2 356.7C284.1 356.5 283.9 356.4 283.6 356.4C283.3 356.4 283.1 356.5 283 356.7C282.9 356.9 282.8 357.3 282.8 357.8V358.4H284.4ZM290.2 363.6C289.3 363.6 288.6 363.3 288.1 362.8C287.7 362.3 287.5 361.5 287.5 360.5V358C287.5 357 287.7 356.2 288.1 355.7C288.5 355.2 289.2 354.9 290.2 354.9C291.1 354.9 291.8 355.1 292.2 355.6C292.6 356 292.8 356.7 292.8 357.6V358.3H290.9V357.6C290.9 357.2 290.8 356.8 290.7 356.7C290.6 356.5 290.4 356.5 290.2 356.5C289.9 356.5 289.7 356.6 289.6 356.8C289.5 357 289.4 357.4 289.4 357.9V361C289.4 361.5 289.5 361.9 289.6 362.1C289.7 362.3 289.9 362.4 290.2 362.4C290.5 362.4 290.7 362.3 290.7 362.1C290.8 361.9 290.9 361.6 290.9 361.2V360.3H292.8V361.1C292.8 362 292.6 362.6 292.2 363.1C291.7 363.4 291 363.6 290.2 363.6ZM294.1 351.6H296.1V355.8C296.7 355.2 297.4 354.8 298.2 354.8C298.7 354.8 299 355 299.3 355.3C299.5 355.7 299.6 356.1 299.6 356.6V363.3H297.6V357C297.6 356.7 297.6 356.5 297.5 356.4C297.4 356.3 297.3 356.2 297 356.2C296.7 356.2 296.4 356.3 296 356.6V363.3H294V351.6H294.1ZM301.1 355H303.1V355.8C303.8 355.2 304.5 354.8 305.2 354.8C305.7 354.8 306 355 306.3 355.3C306.5 355.7 306.7 356.1 306.7 356.6V363.3H304.7V357C304.7 356.7 304.7 356.5 304.6 356.4C304.5 356.3 304.4 356.2 304.1 356.2C303.9 356.2 303.6 356.3 303.2 356.6V363.3H301.2V355H301.1ZM310.6 363.6C309.7 363.6 309 363.4 308.6 362.8C308.2 362.3 307.9 361.6 307.9 360.6V357.8C307.9 356.8 308.1 356.1 308.6 355.6C309.1 355.1 309.7 354.8 310.6 354.8C311.5 354.8 312.2 355.1 312.6 355.6C313.1 356.1 313.3 356.8 313.3 357.8V360.6C313.3 361.6 313.1 362.3 312.6 362.8C312.2 363.4 311.5 363.6 310.6 363.6ZM310.6 362.2C310.9 362.2 311.1 362.1 311.2 361.8C311.3 361.6 311.4 361.2 311.4 360.7V357.6C311.4 357.1 311.3 356.8 311.2 356.5C311.1 356.3 310.9 356.1 310.6 356.1C310.3 356.1 310.1 356.2 310 356.5C309.9 356.7 309.9 357.1 309.9 357.6V360.7C309.9 361.2 309.9 361.5 310 361.8C310.1 362.1 310.3 362.2 310.6 362.2ZM314.8 351.6H316.8V363.5H314.8V351.6ZM321 363.6C320.1 363.6 319.4 363.4 319 362.8C318.6 362.3 318.3 361.6 318.3 360.6V357.8C318.3 356.8 318.5 356.1 319 355.6C319.5 355.1 320.1 354.8 321 354.8C321.9 354.8 322.6 355.1 323 355.6C323.5 356.1 323.7 356.8 323.7 357.8V360.6C323.7 361.6 323.5 362.3 323 362.8C322.5 363.4 321.9 363.6 321 363.6ZM321 362.2C321.3 362.2 321.5 362.1 321.6 361.8C321.7 361.6 321.8 361.2 321.8 360.7V357.6C321.8 357.1 321.7 356.8 321.6 356.5C321.5 356.3 321.3 356.1 321 356.1C320.7 356.1 320.5 356.2 320.4 356.5C320.3 356.7 320.3 357.1 320.3 357.6V360.7C320.3 361.2 320.3 361.5 320.4 361.8C320.4 362.1 320.7 362.2 321 362.2ZM327.5 366.3C326.6 366.3 325.9 366.2 325.4 365.9C324.9 365.6 324.6 365.2 324.6 364.7C324.6 364.3 324.7 364 324.9 363.7C325.1 363.4 325.4 363.2 325.8 363C325.5 362.9 325.2 362.8 325 362.6C324.8 362.4 324.8 362.2 324.8 361.9C324.8 361.6 324.9 361.3 325 361.1C325.2 360.9 325.4 360.6 325.7 360.3C325.4 360.1 325.2 359.7 325 359.4C324.9 359 324.8 358.6 324.8 358C324.8 357 325 356.3 325.5 355.8C326 355.3 326.7 355 327.5 355C328.4 355 329 355.3 329.4 355.8C329.5 355.7 329.6 355.5 329.8 355.3C330 355.1 330.2 355 330.5 354.9L330.8 354.8L331.3 355.9C331.1 355.9 330.9 356 330.6 356.1C330.3 356.2 330.1 356.3 329.9 356.4C330 356.6 330.1 356.8 330.1 357.1C330.2 357.4 330.2 357.7 330.2 357.9C330.2 358.8 330 359.5 329.5 360.1C329.1 360.6 328.4 360.9 327.5 360.9C327.1 360.9 326.7 360.8 326.4 360.7C326.2 360.9 326.2 361.1 326.2 361.3C326.2 361.4 326.3 361.5 326.4 361.6C326.5 361.7 326.7 361.7 327 361.7L328.8 361.9C330.2 362 330.8 362.8 330.8 364C330.8 364.8 330.5 365.3 330 365.7C329.5 366.1 328.7 366.3 327.5 366.3ZM327.7 359.6C328 359.6 328.3 359.5 328.4 359.2C328.5 358.9 328.6 358.5 328.6 357.9C328.6 357.3 328.5 356.8 328.4 356.6C328.3 356.3 328.1 356.2 327.7 356.2C327.3 356.2 327.1 356.3 327 356.6C326.9 356.9 326.8 357.3 326.8 357.9C326.8 358.5 326.9 358.9 327 359.2C327.1 359.4 327.3 359.6 327.7 359.6ZM327.8 364.8C328.4 364.8 328.8 364.7 329 364.6C329.3 364.5 329.4 364.3 329.4 364C329.4 363.8 329.3 363.6 329.2 363.5C329 363.4 328.7 363.3 328.2 363.3L326.7 363.2C326.5 363.4 326.4 363.5 326.3 363.7C326.2 363.8 326.2 364 326.2 364.2C326.2 364.4 326.3 364.6 326.6 364.7C326.8 364.7 327.2 364.8 327.8 364.8ZM332 364.3C332.5 364.3 332.9 364.3 333.1 364.2C333.3 364.1 333.4 363.9 333.4 363.7C333.4 363.5 333.3 363 333.1 362.2L331.2 355H333.1L334.2 360.6L335.2 355H337.1L335.1 363.8C334.9 364.5 334.6 365 334.1 365.3C333.6 365.6 333 365.8 332.2 365.8H332V364.3Z" fill="white"/>
<path d="M160.5 98.1C160.5 98.8 160.3 99.3 159.8 99.7C159.3 100.1 158.7 100.3 157.8 100.3C156.9 100.3 156.2 100.2 155.7 99.9V99.1C156 99.2 156.4 99.3 156.7 99.4C157.1 99.5 157.4 99.5 157.8 99.5C158.4 99.5 158.8 99.4 159.1 99.2C159.4 99 159.6 98.7 159.6 98.3C159.6 98 159.5 97.8 159.4 97.6C159.3 97.4 159.1 97.3 158.9 97.1C158.6 97 158.3 96.8 157.8 96.6C157.1 96.3 156.6 96 156.3 95.7C156 95.4 155.8 94.9 155.8 94.3C155.8 93.7 156 93.3 156.5 92.9C156.9 92.5 157.5 92.4 158.3 92.4C159 92.4 159.7 92.5 160.4 92.8L160.1 93.6C159.5 93.3 158.8 93.2 158.3 93.2C157.8 93.2 157.5 93.3 157.2 93.5C156.9 93.7 156.8 94 156.8 94.3C156.8 94.6 156.8 94.8 156.9 94.9C157 95.1 157.2 95.2 157.4 95.4C157.6 95.5 158 95.7 158.4 95.9C159.2 96.2 159.8 96.5 160.1 96.8C160.4 97.2 160.5 97.6 160.5 98.1ZM163.8 99.6C164 99.6 164.1 99.6 164.2 99.6C164.3 99.6 164.5 99.6 164.5 99.5V100.2C164.4 100.2 164.3 100.3 164.1 100.3C163.9 100.3 163.8 100.3 163.6 100.3C162.5 100.3 161.9 99.7 161.9 98.5V95.1H161.1V94.7L161.9 94.3L162.3 93.1H162.8V94.4H164.5V95.1H162.8V98.5C162.8 98.8 162.9 99.1 163 99.3C163.3 99.5 163.5 99.6 163.8 99.6ZM168.3 94.4C168.5 94.4 168.8 94.4 169 94.5L168.9 95.3C168.7 95.2 168.5 95.2 168.3 95.2C167.8 95.2 167.4 95.4 167.1 95.8C166.8 96.2 166.6 96.6 166.6 97.2V100.3H165.7V94.6H166.4L166.5 95.7C166.7 95.3 167 95 167.3 94.8C167.6 94.5 167.9 94.4 168.3 94.4ZM173.5 100.2L173.3 99.4C173 99.8 172.7 100 172.5 100.1C172.2 100.2 171.9 100.3 171.4 100.3C170.8 100.3 170.4 100.2 170.1 99.9C169.8 99.6 169.6 99.2 169.6 98.7C169.6 97.6 170.5 96.9 172.4 96.9H173.4V96.6C173.4 96.2 173.3 95.8 173.1 95.6C172.9 95.4 172.6 95.3 172.2 95.3C171.7 95.3 171.2 95.4 170.6 95.7L170.3 95C170.6 94.9 170.9 94.7 171.2 94.7C171.5 94.6 171.9 94.6 172.2 94.6C172.9 94.6 173.4 94.8 173.7 95.1C174 95.4 174.2 95.9 174.2 96.6V100.5H173.5V100.2ZM171.6 99.6C172.1 99.6 172.6 99.5 172.9 99.2C173.2 98.9 173.4 98.5 173.4 98V97.5H172.5C171.8 97.5 171.3 97.6 171 97.8C170.7 98 170.5 98.3 170.5 98.7C170.5 99 170.6 99.3 170.8 99.4C171 99.5 171.3 99.6 171.6 99.6ZM177.8 99.6C178 99.6 178.1 99.6 178.2 99.6C178.3 99.6 178.5 99.6 178.5 99.5V100.2C178.4 100.2 178.3 100.3 178.1 100.3C177.9 100.3 177.8 100.3 177.6 100.3C176.5 100.3 175.9 99.7 175.9 98.5V95.1H175.1V94.7L175.9 94.3L176.3 93.1H176.8V94.4H178.5V95.1H176.8V98.5C176.8 98.8 176.9 99.1 177 99.3C177.3 99.5 177.5 99.6 177.8 99.6ZM182.1 100.3C181.3 100.3 180.6 100 180.1 99.5C179.6 99 179.4 98.3 179.4 97.4C179.4 96.5 179.6 95.7 180.1 95.2C180.6 94.7 181.2 94.4 181.9 94.4C182.6 94.4 183.2 94.6 183.6 95.1C184 95.6 184.2 96.2 184.2 97V97.5H180.3C180.3 98.2 180.5 98.7 180.8 99C181.1 99.3 181.6 99.5 182.2 99.5C182.8 99.5 183.4 99.4 184 99.1V99.9C183.7 100 183.4 100.1 183.1 100.2C182.9 100.3 182.5 100.3 182.1 100.3ZM181.9 95.1C181.4 95.1 181.1 95.3 180.8 95.6C180.5 95.9 180.4 96.3 180.3 96.8H183.3C183.3 96.2 183.2 95.8 182.9 95.6C182.7 95.2 182.4 95.1 181.9 95.1ZM190.4 94.5V95L189.4 95.1C189.5 95.2 189.6 95.4 189.6 95.6C189.7 95.8 189.7 96 189.7 96.3C189.7 96.9 189.5 97.3 189.1 97.6C188.7 97.9 188.2 98.1 187.5 98.1C187.3 98.1 187.2 98.1 187 98.1C186.6 98.3 186.5 98.5 186.5 98.8C186.5 99 186.6 99.1 186.7 99.1C186.8 99.2 187 99.2 187.4 99.2H188.4C189 99.2 189.5 99.3 189.8 99.6C190.1 99.9 190.3 100.2 190.3 100.7C190.3 101.3 190 101.8 189.5 102.1C189 102.4 188.3 102.6 187.3 102.6C186.6 102.6 186 102.5 185.6 102.2C185.2 101.9 185 101.5 185 101C185 100.7 185.1 100.4 185.3 100.1C185.5 99.9 185.8 99.7 186.2 99.6C186.1 99.5 185.9 99.4 185.8 99.3C185.7 99.2 185.7 99 185.7 98.8C185.7 98.6 185.8 98.4 185.9 98.3C186 98.1 186.2 98 186.4 97.8C186.1 97.7 185.9 97.5 185.7 97.2C185.5 96.9 185.4 96.6 185.4 96.2C185.4 95.6 185.6 95.1 186 94.8C186.4 94.5 186.9 94.3 187.6 94.3C187.9 94.3 188.2 94.3 188.4 94.4H190.4V94.5ZM185.8 101.1C185.8 101.4 185.9 101.6 186.2 101.8C186.5 102 186.8 102 187.3 102C188 102 188.5 101.9 188.9 101.7C189.3 101.5 189.4 101.2 189.4 100.8C189.4 100.5 189.3 100.3 189.1 100.2C188.9 100.1 188.6 100 188 100H187C186.6 100 186.3 100.1 186.1 100.3C185.9 100.5 185.8 100.8 185.8 101.1ZM186.3 96.3C186.3 96.7 186.4 97 186.6 97.2C186.8 97.4 187.1 97.5 187.5 97.5C188.3 97.5 188.8 97.1 188.8 96.3C188.8 95.4 188.4 95 187.5 95C187.1 95 186.8 95.1 186.6 95.3C186.4 95.5 186.3 95.9 186.3 96.3ZM190.6 94.5H191.5L192.7 97.7C193 98.4 193.1 99 193.2 99.3C193.2 99.1 193.3 98.8 193.5 98.4C193.6 98 194.1 96.7 194.9 94.4H195.8L193.3 100.9C193.1 101.5 192.8 102 192.5 102.3C192.2 102.6 191.8 102.7 191.3 102.7C191 102.7 190.8 102.7 190.5 102.6V102C190.7 102 190.9 102.1 191.1 102.1C191.7 102.1 192.1 101.8 192.4 101.1L192.7 100.3L190.6 94.5Z" fill="white"/>
<path d="M147.4 106.3C146.6 106.3 145.9 106.6 145.4 107.1C144.9 107.7 144.7 108.4 144.7 109.4C144.7 110.4 144.9 111.2 145.4 111.7C145.9 112.2 146.5 112.5 147.4 112.5C147.9 112.5 148.5 112.4 149.2 112.2V113C148.7 113.2 148 113.3 147.2 113.3C146.1 113.3 145.2 113 144.6 112.3C144 111.6 143.7 110.6 143.7 109.4C143.7 108.6 143.8 107.9 144.1 107.3C144.4 106.7 144.8 106.3 145.4 105.9C146 105.6 146.6 105.4 147.4 105.4C148.2 105.4 148.9 105.5 149.5 105.8L149.1 106.6C148.6 106.4 148 106.3 147.4 106.3ZM155.7 110.3C155.7 111.2 155.5 112 155 112.5C154.5 113 153.9 113.3 153 113.3C152.5 113.3 152.1 113.2 151.7 112.9C151.3 112.7 151 112.3 150.8 111.9C150.6 111.5 150.5 110.9 150.5 110.3C150.5 109.4 150.7 108.6 151.2 108.1C151.7 107.6 152.3 107.3 153.1 107.3C153.9 107.3 154.5 107.6 155 108.1C155.5 108.7 155.7 109.4 155.7 110.3ZM151.4 110.3C151.4 111 151.5 111.6 151.8 112C152.1 112.4 152.5 112.6 153.1 112.6C153.7 112.6 154.1 112.4 154.4 112C154.7 111.6 154.8 111.1 154.8 110.3C154.8 109.6 154.7 109 154.4 108.7C154.1 108.3 153.7 108.1 153.1 108.1C152.5 108.1 152.1 108.3 151.8 108.7C151.5 109 151.4 109.6 151.4 110.3ZM161.1 113.2V109.5C161.1 109 161 108.7 160.8 108.5C160.6 108.3 160.3 108.2 159.8 108.2C159.2 108.2 158.8 108.4 158.5 108.7C158.2 109 158.1 109.6 158.1 110.3V113.3H157.2V107.6H157.9L158 108.4C158.2 108.1 158.4 107.9 158.7 107.7C159 107.5 159.4 107.5 159.8 107.5C160.5 107.5 161 107.7 161.3 108C161.7 108.3 161.8 108.9 161.8 109.6V113.3H161.1V113.2ZM167.4 111.6C167.4 112.1 167.2 112.5 166.8 112.8C166.4 113.1 165.9 113.2 165.1 113.2C164.3 113.2 163.7 113.1 163.3 112.8V112C163.6 112.1 163.9 112.3 164.2 112.3C164.5 112.4 164.8 112.4 165.1 112.4C165.5 112.4 165.9 112.3 166.1 112.2C166.3 112.1 166.5 111.8 166.5 111.5C166.5 111.3 166.4 111.1 166.2 110.9C166 110.7 165.6 110.5 165.1 110.3C164.6 110.1 164.2 109.9 164 109.8C163.8 109.7 163.6 109.5 163.5 109.3C163.4 109.1 163.3 108.9 163.3 108.6C163.3 108.1 163.5 107.8 163.9 107.5C164.3 107.2 164.8 107.1 165.5 107.1C166.1 107.1 166.7 107.2 167.3 107.5L167 108.2C166.4 108 165.9 107.9 165.4 107.9C165 107.9 164.7 108 164.5 108.1C164.3 108.2 164.2 108.4 164.2 108.6C164.2 108.8 164.2 108.9 164.3 109C164.4 109.1 164.5 109.2 164.7 109.3C164.9 109.4 165.2 109.5 165.7 109.7C166.4 109.9 166.8 110.2 167.1 110.4C167.4 110.6 167.4 111.2 167.4 111.6ZM169.7 107.5V111.2C169.7 111.7 169.8 112 170 112.2C170.2 112.4 170.5 112.5 171 112.5C171.6 112.5 172 112.3 172.3 112C172.6 111.7 172.7 111.1 172.7 110.4V107.4H173.6V113.1H172.9L172.8 112.3C172.6 112.6 172.4 112.8 172.1 113C171.8 113.1 171.4 113.2 171 113.2C170.3 113.2 169.8 113 169.5 112.7C169.2 112.4 169 111.8 169 111.1V107.4H169.7V107.5ZM176.3 113.2H175.4V105.1H176.3V113.2ZM179.9 112.6C180.1 112.6 180.2 112.6 180.3 112.6C180.4 112.6 180.6 112.6 180.6 112.5V113.2C180.5 113.2 180.4 113.3 180.2 113.3C180 113.3 179.9 113.3 179.7 113.3C178.6 113.3 178 112.7 178 111.5V108.1H177.2V107.7L178 107.3L178.4 106.1H178.9V107.4H180.6V108.1H179V111.5C179 111.8 179.1 112.1 179.2 112.3C179.4 112.5 179.6 112.6 179.9 112.6ZM182.7 113.2H181.8V107.5H182.7V113.2ZM181.8 105.9C181.8 105.7 181.8 105.6 181.9 105.5C182 105.4 182.1 105.4 182.3 105.4C182.4 105.4 182.5 105.4 182.6 105.5C182.7 105.6 182.8 105.7 182.8 105.9C182.8 106.1 182.7 106.2 182.6 106.3C182.5 106.4 182.4 106.4 182.3 106.4C182.2 106.4 182 106.4 181.9 106.3C181.8 106.3 181.8 106.1 181.8 105.9ZM188.4 113.2V109.5C188.4 109 188.3 108.7 188.1 108.5C187.9 108.3 187.6 108.2 187.1 108.2C186.5 108.2 186.1 108.4 185.8 108.7C185.5 109 185.4 109.6 185.4 110.3V113.3H184.5V107.6H185.2L185.3 108.4C185.5 108.1 185.7 107.9 186 107.7C186.3 107.5 186.7 107.5 187.1 107.5C187.8 107.5 188.3 107.7 188.6 108C189 108.3 189.1 108.9 189.1 109.6V113.3H188.4V113.2ZM195.7 107.5V108L194.7 108.1C194.8 108.2 194.9 108.4 194.9 108.6C195 108.8 195 109 195 109.3C195 109.9 194.8 110.3 194.4 110.6C194 110.9 193.5 111.1 192.8 111.1C192.6 111.1 192.5 111.1 192.3 111.1C191.9 111.3 191.8 111.5 191.8 111.8C191.8 112 191.9 112.1 192 112.1C192.1 112.2 192.3 112.2 192.7 112.2H193.7C194.3 112.2 194.8 112.3 195.1 112.6C195.4 112.9 195.6 113.2 195.6 113.7C195.6 114.3 195.3 114.8 194.8 115.1C194.3 115.4 193.6 115.6 192.6 115.6C191.9 115.6 191.3 115.5 190.9 115.2C190.5 114.9 190.3 114.5 190.3 114C190.3 113.7 190.4 113.4 190.6 113.1C190.8 112.9 191.1 112.7 191.5 112.6C191.4 112.5 191.2 112.4 191.1 112.3C191 112.2 191 112 191 111.8C191 111.6 191.1 111.4 191.2 111.3C191.3 111.1 191.5 111 191.7 110.8C191.4 110.7 191.2 110.5 191 110.2C190.8 109.9 190.7 109.6 190.7 109.2C190.7 108.6 190.9 108.1 191.3 107.8C191.7 107.5 192.2 107.3 192.9 107.3C193.2 107.3 193.5 107.3 193.7 107.4H195.7V107.5ZM191.2 114.1C191.2 114.4 191.3 114.6 191.6 114.8C191.9 115 192.2 115 192.7 115C193.4 115 193.9 114.9 194.3 114.7C194.7 114.5 194.8 114.2 194.8 113.8C194.8 113.5 194.7 113.3 194.5 113.2C194.3 113.1 194 113 193.4 113H192.4C192 113 191.7 113.1 191.5 113.3C191.3 113.5 191.2 113.8 191.2 114.1ZM191.7 109.3C191.7 109.7 191.8 110 192 110.2C192.2 110.4 192.5 110.5 192.9 110.5C193.7 110.5 194.2 110.1 194.2 109.3C194.2 108.4 193.8 108 192.9 108C192.5 108 192.2 108.1 192 108.3C191.8 108.5 191.7 108.9 191.7 109.3Z" fill="white"/>
<path d="M430.4 94.8C430.4 95.6 430.1 96.2 429.6 96.6C429.1 97 428.3 97.2 427.4 97.2H426.5V100.2H425.6V92.6H427.6C429.5 92.6 430.4 93.3 430.4 94.8ZM426.5 96.4H427.3C428.1 96.4 428.7 96.3 429 96C429.4 95.7 429.5 95.3 429.5 94.8C429.5 94.3 429.3 93.9 429 93.7C428.7 93.5 428.2 93.3 427.5 93.3H426.5V96.4ZM434.5 94.4C434.7 94.4 435 94.4 435.2 94.5L435.1 95.3C434.9 95.2 434.7 95.2 434.5 95.2C434 95.2 433.6 95.4 433.3 95.8C433 96.2 432.8 96.6 432.8 97.2V100.3H431.9V94.6H432.6L432.7 95.7C432.9 95.3 433.2 95 433.5 94.8C433.8 94.5 434.1 94.4 434.5 94.4ZM441.2 97.3C441.2 98.2 441 99 440.5 99.5C440 100 439.4 100.3 438.5 100.3C438 100.3 437.6 100.2 437.2 99.9C436.8 99.7 436.5 99.3 436.3 98.9C436.1 98.5 436 97.9 436 97.3C436 96.4 436.2 95.6 436.7 95.1C437.2 94.6 437.8 94.3 438.6 94.3C439.4 94.3 440 94.6 440.5 95.1C440.9 95.7 441.2 96.4 441.2 97.3ZM436.8 97.3C436.8 98 436.9 98.6 437.2 99C437.5 99.4 437.9 99.6 438.5 99.6C439.1 99.6 439.5 99.4 439.8 99C440.1 98.6 440.2 98.1 440.2 97.3C440.2 96.6 440.1 96 439.8 95.7C439.5 95.3 439.1 95.1 438.5 95.1C437.9 95.1 437.5 95.3 437.2 95.7C437 96 436.8 96.6 436.8 97.3ZM444.9 100.3C444.1 100.3 443.4 100 443 99.5C442.6 99 442.3 98.3 442.3 97.3C442.3 96.3 442.5 95.6 443 95.1C443.5 94.6 444.1 94.3 445 94.3C445.3 94.3 445.5 94.3 445.8 94.4C446.1 94.5 446.3 94.5 446.5 94.6L446.2 95.3C446 95.2 445.8 95.2 445.6 95.1C445.4 95 445.2 95 445 95C443.8 95 443.3 95.7 443.3 97.2C443.3 97.9 443.4 98.4 443.7 98.8C444 99.2 444.4 99.4 444.9 99.4C445.4 99.4 445.9 99.3 446.4 99.1V99.9C446 100.2 445.5 100.3 444.9 100.3ZM450.2 100.3C449.4 100.3 448.7 100 448.2 99.5C447.7 99 447.5 98.3 447.5 97.4C447.5 96.5 447.7 95.7 448.2 95.2C448.7 94.7 449.3 94.4 450 94.4C450.7 94.4 451.3 94.6 451.7 95.1C452.1 95.6 452.3 96.2 452.3 97V97.5H448.4C448.4 98.2 448.6 98.7 448.9 99C449.2 99.3 449.7 99.5 450.3 99.5C450.9 99.5 451.5 99.4 452.1 99.1V99.9C451.8 100 451.5 100.1 451.2 100.2C450.9 100.3 450.5 100.3 450.2 100.3ZM449.9 95.1C449.4 95.1 449.1 95.3 448.8 95.6C448.5 95.9 448.4 96.3 448.3 96.8H451.3C451.3 96.2 451.2 95.8 450.9 95.6C450.7 95.2 450.4 95.1 449.9 95.1ZM457.4 98.6C457.4 99.1 457.2 99.5 456.8 99.8C456.4 100.1 455.9 100.2 455.1 100.2C454.3 100.2 453.7 100.1 453.3 99.8V99C453.6 99.1 453.9 99.3 454.2 99.3C454.5 99.4 454.8 99.4 455.1 99.4C455.5 99.4 455.9 99.3 456.1 99.2C456.3 99.1 456.5 98.8 456.5 98.5C456.5 98.3 456.4 98.1 456.2 97.9C456 97.7 455.6 97.5 455.1 97.3C454.6 97.1 454.2 96.9 454 96.8C453.8 96.7 453.6 96.5 453.5 96.3C453.4 96.1 453.3 95.9 453.3 95.6C453.3 95.1 453.5 94.8 453.9 94.5C454.3 94.2 454.8 94.1 455.5 94.1C456.1 94.1 456.7 94.2 457.3 94.5L457 95.2C456.4 95 455.9 94.9 455.4 94.9C455 94.9 454.7 95 454.5 95.1C454.3 95.2 454.2 95.4 454.2 95.6C454.2 95.8 454.2 95.9 454.3 96C454.4 96.1 454.5 96.2 454.7 96.3C454.9 96.4 455.2 96.5 455.7 96.7C456.4 96.9 456.8 97.2 457.1 97.4C457.4 97.6 457.4 98.2 457.4 98.6ZM462.5 98.6C462.5 99.1 462.3 99.5 461.9 99.8C461.5 100.1 461 100.2 460.2 100.2C459.4 100.2 458.8 100.1 458.4 99.8V99C458.7 99.1 459 99.3 459.3 99.3C459.6 99.4 459.9 99.4 460.2 99.4C460.6 99.4 461 99.3 461.2 99.2C461.4 99.1 461.6 98.8 461.6 98.5C461.6 98.3 461.5 98.1 461.3 97.9C461.1 97.7 460.7 97.5 460.2 97.3C459.7 97.1 459.3 96.9 459.1 96.8C458.9 96.7 458.7 96.5 458.6 96.3C458.5 96.1 458.4 95.9 458.4 95.6C458.4 95.1 458.6 94.8 459 94.5C459.4 94.2 459.9 94.1 460.6 94.1C461.2 94.1 461.8 94.2 462.4 94.5L462.1 95.2C461.5 95 461 94.9 460.5 94.9C460.1 94.9 459.8 95 459.6 95.1C459.4 95.2 459.3 95.4 459.3 95.6C459.3 95.8 459.3 95.9 459.4 96C459.5 96.1 459.6 96.2 459.8 96.3C460 96.4 460.3 96.5 460.8 96.7C461.5 96.9 461.9 97.2 462.2 97.4C462.4 97.9 462.5 98.2 462.5 98.6Z" fill="white"/>
<path d="M429.8 113.2H425.6V105.6H429.8V106.4H426.5V108.9H429.6V109.7H426.5V112.5H429.8V113.2ZM435.3 113.2V109.5C435.3 109 435.2 108.7 435 108.5C434.8 108.3 434.5 108.2 434 108.2C433.4 108.2 433 108.4 432.7 108.7C432.4 109 432.3 109.6 432.3 110.3V113.3H431.4V107.6H432.1L432.2 108.4C432.4 108.1 432.6 107.9 432.9 107.7C433.2 107.5 433.6 107.5 434 107.5C434.7 107.5 435.2 107.7 435.5 108C435.9 108.3 436 108.9 436 109.6V113.3H435.3V113.2ZM442.6 107.5V108L441.6 108.1C441.7 108.2 441.8 108.4 441.8 108.6C441.9 108.8 441.9 109 441.9 109.3C441.9 109.9 441.7 110.3 441.3 110.6C440.9 110.9 440.4 111.1 439.7 111.1C439.5 111.1 439.4 111.1 439.2 111.1C438.8 111.3 438.7 111.5 438.7 111.8C438.7 112 438.8 112.1 438.9 112.1C439 112.2 439.2 112.2 439.6 112.2H440.6C441.2 112.2 441.7 112.3 442 112.6C442.3 112.9 442.5 113.2 442.5 113.7C442.5 114.3 442.2 114.8 441.7 115.1C441.2 115.4 440.5 115.6 439.5 115.6C438.8 115.6 438.2 115.5 437.8 115.2C437.4 114.9 437.2 114.5 437.2 114C437.2 113.7 437.3 113.4 437.5 113.1C437.7 112.9 438 112.7 438.4 112.6C438.3 112.5 438.1 112.4 438 112.3C437.9 112.2 437.9 112 437.9 111.8C437.9 111.6 438 111.4 438.1 111.3C438.2 111.2 438.4 111 438.6 110.8C438.3 110.7 438.1 110.5 437.9 110.2C437.7 109.9 437.6 109.6 437.6 109.2C437.6 108.6 437.8 108.1 438.2 107.8C438.6 107.5 439.1 107.3 439.8 107.3C440.1 107.3 440.4 107.3 440.6 107.4H442.6V107.5ZM438 114.1C438 114.4 438.1 114.6 438.4 114.8C438.7 115 439 115 439.5 115C440.2 115 440.7 114.9 441.1 114.7C441.5 114.5 441.6 114.2 441.6 113.8C441.6 113.5 441.5 113.3 441.3 113.2C441.1 113.1 440.8 113 440.2 113H439.2C438.8 113 438.5 113.1 438.3 113.3C438.1 113.5 438 113.8 438 114.1ZM438.5 109.3C438.5 109.7 438.6 110 438.8 110.2C439 110.4 439.3 110.5 439.7 110.5C440.5 110.5 441 110.1 441 109.3C441 108.4 440.6 108 439.7 108C439.3 108 439 108.1 438.8 108.3C438.6 108.5 438.5 108.9 438.5 109.3ZM444.6 113.2H443.7V107.5H444.6V113.2ZM443.7 105.9C443.7 105.7 443.7 105.6 443.8 105.5C443.9 105.4 444 105.4 444.2 105.4C444.3 105.4 444.4 105.4 444.5 105.5C444.6 105.6 444.7 105.7 444.7 105.9C444.7 106.1 444.6 106.2 444.5 106.3C444.4 106.4 444.3 106.4 444.2 106.4C444.1 106.4 443.9 106.4 443.8 106.3C443.7 106.3 443.7 106.1 443.7 105.9ZM450.4 113.2V109.5C450.4 109 450.3 108.7 450.1 108.5C449.9 108.3 449.6 108.2 449.1 108.2C448.5 108.2 448.1 108.4 447.8 108.7C447.5 109 447.4 109.6 447.4 110.3V113.3H446.5V107.6H447.2L447.3 108.4C447.5 108.1 447.7 107.9 448 107.7C448.3 107.5 448.7 107.5 449.1 107.5C449.8 107.5 450.3 107.7 450.6 108C451 108.3 451.1 108.9 451.1 109.6V113.3H450.4V113.2ZM455.4 113.3C454.6 113.3 453.9 113 453.4 112.5C452.9 112 452.7 111.3 452.7 110.4C452.7 109.5 452.9 108.7 453.4 108.2C453.9 107.7 454.5 107.4 455.2 107.4C455.9 107.4 456.5 107.6 456.9 108.1C457.3 108.6 457.5 109.2 457.5 110V110.5H453.6C453.6 111.2 453.8 111.7 454.1 112C454.4 112.3 454.9 112.5 455.5 112.5C456.1 112.5 456.7 112.4 457.3 112.1V112.9C457 113 456.7 113.1 456.4 113.2C456.1 113.3 455.8 113.3 455.4 113.3ZM455.2 108.1C454.7 108.1 454.4 108.3 454.1 108.6C453.8 108.9 453.7 109.3 453.6 109.8H456.6C456.6 109.2 456.5 108.8 456.2 108.6C456 108.2 455.6 108.1 455.2 108.1ZM461.4 113.3C460.6 113.3 459.9 113 459.4 112.5C458.9 112 458.7 111.3 458.7 110.4C458.7 109.5 458.9 108.7 459.4 108.2C459.9 107.7 460.5 107.4 461.2 107.4C461.9 107.4 462.5 107.6 462.9 108.1C463.3 108.6 463.5 109.2 463.5 110V110.5H459.6C459.6 111.2 459.8 111.7 460.1 112C460.4 112.3 460.9 112.5 461.5 112.5C462.1 112.5 462.7 112.4 463.3 112.1V112.9C463 113 462.7 113.1 462.4 113.2C462.1 113.3 461.8 113.3 461.4 113.3ZM461.2 108.1C460.7 108.1 460.4 108.3 460.1 108.6C459.8 108.9 459.7 109.3 459.6 109.8H462.6C462.6 109.2 462.5 108.8 462.2 108.6C462 108.2 461.6 108.1 461.2 108.1ZM467.6 107.4C467.8 107.4 468.1 107.4 468.3 107.5L468.2 108.3C468 108.2 467.8 108.2 467.6 108.2C467.1 108.2 466.7 108.4 466.4 108.8C466.1 109.2 465.9 109.6 465.9 110.2V113.3H465V107.6H465.7L465.8 108.7C466 108.3 466.3 108 466.6 107.8C466.9 107.5 467.2 107.4 467.6 107.4ZM470.2 113.2H469.3V107.5H470.2V113.2ZM469.2 105.9C469.2 105.7 469.2 105.6 469.3 105.5C469.4 105.4 469.5 105.4 469.7 105.4C469.8 105.4 469.9 105.4 470 105.5C470.1 105.6 470.2 105.7 470.2 105.9C470.2 106.1 470.1 106.2 470 106.3C469.9 106.4 469.8 106.4 469.7 106.4C469.6 106.4 469.4 106.4 469.3 106.3C469.3 106.3 469.2 106.1 469.2 105.9ZM475.9 113.2V109.5C475.9 109 475.8 108.7 475.6 108.5C475.4 108.3 475.1 108.2 474.6 108.2C474 108.2 473.6 108.4 473.3 108.7C473 109 472.9 109.6 472.9 110.3V113.3H472V107.6H472.7L472.8 108.4C473 108.1 473.2 107.9 473.5 107.7C473.8 107.5 474.2 107.5 474.6 107.5C475.3 107.5 475.8 107.7 476.1 108C476.5 108.3 476.6 108.9 476.6 109.6V113.3H475.9V113.2ZM483.2 107.5V108L482.2 108.1C482.3 108.2 482.4 108.4 482.4 108.6C482.5 108.8 482.5 109 482.5 109.3C482.5 109.9 482.3 110.3 481.9 110.6C481.5 110.9 481 111.1 480.3 111.1C480.1 111.1 480 111.1 479.8 111.1C479.4 111.3 479.3 111.5 479.3 111.8C479.3 112 479.4 112.1 479.5 112.1C479.6 112.2 479.8 112.2 480.2 112.2H481.2C481.8 112.2 482.3 112.3 482.6 112.6C482.9 112.9 483.1 113.2 483.1 113.7C483.1 114.3 482.8 114.8 482.3 115.1C481.8 115.4 481.1 115.6 480.1 115.6C479.4 115.6 478.8 115.5 478.4 115.2C478 114.9 477.8 114.5 477.8 114C477.8 113.7 477.9 113.4 478.1 113.1C478.3 112.9 478.6 112.7 479 112.6C478.9 112.5 478.7 112.4 478.6 112.3C478.5 112.2 478.5 112 478.5 111.8C478.5 111.6 478.6 111.4 478.7 111.3C478.8 111.1 479 111 479.2 110.8C478.9 110.7 478.7 110.5 478.5 110.2C478.3 109.9 478.2 109.6 478.2 109.2C478.2 108.6 478.4 108.1 478.8 107.8C479.2 107.5 479.7 107.3 480.4 107.3C480.7 107.3 481 107.3 481.2 107.4H483.2V107.5ZM478.7 114.1C478.7 114.4 478.8 114.6 479.1 114.8C479.4 115 479.7 115 480.2 115C480.9 115 481.4 114.9 481.8 114.7C482.2 114.5 482.3 114.2 482.3 113.8C482.3 113.5 482.2 113.3 482 113.2C481.8 113.1 481.5 113 480.9 113H479.9C479.5 113 479.2 113.1 479 113.3C478.8 113.5 478.7 113.8 478.7 114.1ZM479.1 109.3C479.1 109.7 479.2 110 479.4 110.2C479.6 110.4 479.9 110.5 480.3 110.5C481.1 110.5 481.6 110.1 481.6 109.3C481.6 108.4 481.2 108 480.3 108C479.9 108 479.6 108.1 479.4 108.3C479.2 108.5 479.1 108.9 479.1 109.3Z" fill="white"/>
<path d="M158.8 274C158.8 274.8 158.5 275.4 158 275.8C157.5 276.2 156.7 276.4 155.8 276.4H154.9V279.4H154V271.8H156C157.8 271.7 158.8 272.5 158.8 274ZM154.8 275.6H155.6C156.4 275.6 157 275.5 157.3 275.2C157.7 274.9 157.8 274.5 157.8 274C157.8 273.5 157.6 273.1 157.3 272.9C157 272.7 156.5 272.5 155.8 272.5H154.8V275.6ZM161.1 279.4H160.2V271.3H161.1V279.4ZM166.4 279.4L166.2 278.6C165.9 279 165.6 279.2 165.4 279.3C165.1 279.4 164.8 279.5 164.3 279.5C163.7 279.5 163.3 279.4 163 279.1C162.7 278.8 162.5 278.4 162.5 277.9C162.5 276.8 163.4 276.1 165.3 276.1H166.3V275.8C166.3 275.4 166.2 275 166 274.8C165.8 274.6 165.5 274.5 165.1 274.5C164.6 274.5 164.1 274.6 163.5 274.9L163.2 274.2C163.5 274.1 163.8 273.9 164.1 273.9C164.4 273.8 164.8 273.8 165.1 273.8C165.8 273.8 166.3 274 166.6 274.3C166.9 274.6 167.1 275.1 167.1 275.8V279.7H166.4V279.4ZM164.5 278.7C165 278.7 165.5 278.6 165.8 278.3C166.1 278 166.3 277.6 166.3 277.1V276.6H165.4C164.7 276.6 164.2 276.7 163.9 276.9C163.6 277.1 163.4 277.4 163.4 277.8C163.4 278.1 163.5 278.4 163.7 278.5C163.9 278.7 164.1 278.7 164.5 278.7ZM170.7 278.7C170.9 278.7 171 278.7 171.1 278.7C171.2 278.7 171.4 278.7 171.4 278.6V279.3C171.3 279.3 171.2 279.4 171 279.4C170.8 279.4 170.7 279.4 170.5 279.4C169.4 279.4 168.8 278.8 168.8 277.6V274.2H168V273.8L168.8 273.4L169.2 272.2H169.7V273.5H171.4V274.2H169.7V277.6C169.7 277.9 169.8 278.2 169.9 278.4C170.2 278.7 170.4 278.7 170.7 278.7ZM175.2 274.3H173.7V279.3H172.8V274.3H171.8V273.9L172.8 273.6V273.3C172.8 271.9 173.4 271.2 174.6 271.2C174.9 271.2 175.3 271.3 175.7 271.4L175.5 272.1C175.2 272 174.9 271.9 174.6 271.9C174.3 271.9 174 272 173.9 272.2C173.7 272.4 173.7 272.8 173.7 273.2V273.6H175.2V274.3ZM181.1 276.5C181.1 277.4 180.9 278.2 180.4 278.7C179.9 279.2 179.3 279.5 178.4 279.5C177.9 279.5 177.5 279.4 177.1 279.1C176.7 278.9 176.4 278.5 176.2 278.1C176 277.7 175.9 277.1 175.9 276.5C175.9 275.6 176.1 274.8 176.6 274.3C177.1 273.8 177.7 273.5 178.5 273.5C179.3 273.5 179.9 273.8 180.4 274.3C180.9 274.9 181.1 275.6 181.1 276.5ZM176.8 276.5C176.8 277.2 176.9 277.8 177.2 278.2C177.5 278.6 177.9 278.8 178.5 278.8C179.1 278.8 179.5 278.6 179.8 278.2C180.1 277.8 180.2 277.3 180.2 276.5C180.2 275.8 180.1 275.2 179.8 274.9C179.5 274.5 179.1 274.3 178.5 274.3C177.9 274.3 177.5 274.5 177.2 274.9C176.9 275.2 176.8 275.8 176.8 276.5ZM185.3 273.5C185.5 273.5 185.8 273.5 186 273.6L185.9 274.4C185.7 274.3 185.5 274.3 185.3 274.3C184.8 274.3 184.4 274.5 184.1 274.9C183.8 275.3 183.6 275.7 183.6 276.3V279.4H182.7V273.7H183.4L183.5 274.8C183.7 274.4 184 274.1 184.3 273.9C184.6 273.6 184.9 273.5 185.3 273.5ZM194.3 279.4V275.7C194.3 275.2 194.2 274.9 194 274.7C193.8 274.5 193.5 274.4 193.1 274.4C192.6 274.4 192.2 274.6 191.9 274.9C191.6 275.2 191.5 275.7 191.5 276.3V279.5H190.6V275.8C190.6 275.3 190.5 275 190.3 274.8C190.1 274.6 189.8 274.5 189.4 274.5C188.9 274.5 188.5 274.7 188.2 275C188 275.3 187.8 275.9 187.8 276.6V279.6H187V273.9H187.7L187.8 274.7C188 274.4 188.2 274.2 188.5 274C188.8 273.8 189.1 273.8 189.5 273.8C190.4 273.8 191 274.1 191.3 274.8C191.5 274.5 191.7 274.3 192 274.1C192.3 273.9 192.7 273.8 193.1 273.8C193.7 273.8 194.2 274 194.5 274.3C194.8 274.6 195 275.2 195 275.9V279.6H194.3V279.4Z" fill="white"/>
<path d="M136.2 288.5C136.2 289.7 135.9 290.7 135.2 291.4C134.5 292.1 133.5 292.4 132.3 292.4H130.2V284.8H132.5C133.7 284.8 134.6 285.1 135.3 285.8C136 286.5 136.2 287.3 136.2 288.5ZM135.3 288.5C135.3 287.5 135.1 286.8 134.5 286.3C134 285.8 133.3 285.5 132.3 285.5H131V291.6H132.1C133.2 291.6 134 291.3 134.5 290.8C135 290.3 135.3 289.5 135.3 288.5ZM140.2 292.5C139.4 292.5 138.7 292.2 138.2 291.7C137.7 291.2 137.5 290.5 137.5 289.6C137.5 288.7 137.7 287.9 138.2 287.4C138.7 286.9 139.3 286.6 140 286.6C140.7 286.6 141.3 286.8 141.7 287.3C142.1 287.8 142.3 288.4 142.3 289.2V289.7H138.4C138.4 290.4 138.6 290.9 138.9 291.2C139.2 291.5 139.7 291.7 140.3 291.7C140.9 291.7 141.5 291.6 142.1 291.3V292.1C141.8 292.2 141.5 292.3 141.2 292.4C140.9 292.4 140.6 292.5 140.2 292.5ZM139.9 287.3C139.4 287.3 139.1 287.5 138.8 287.8C138.5 288.1 138.4 288.5 138.3 289H141.3C141.3 288.4 141.2 288 140.9 287.8C140.7 287.4 140.4 287.3 139.9 287.3ZM145 292.4L142.8 286.7H143.7L144.9 290.1C145.2 290.9 145.3 291.4 145.4 291.6C145.4 291.4 145.5 291 145.7 290.5C145.9 289.9 146.4 288.7 147.1 286.7H148L145.8 292.4H145ZM151.5 292.5C150.7 292.5 150 292.2 149.5 291.7C149 291.2 148.8 290.5 148.8 289.6C148.8 288.7 149 287.9 149.5 287.4C150 286.9 150.6 286.6 151.3 286.6C152 286.6 152.6 286.8 153 287.3C153.4 287.8 153.6 288.4 153.6 289.2V289.7H149.7C149.7 290.4 149.9 290.9 150.2 291.2C150.5 291.5 151 291.7 151.6 291.7C152.2 291.7 152.8 291.6 153.4 291.3V292.1C153.1 292.2 152.8 292.3 152.5 292.4C152.2 292.4 151.9 292.5 151.5 292.5ZM151.3 287.3C150.8 287.3 150.5 287.5 150.2 287.8C149.9 288.1 149.8 288.5 149.7 289H152.7C152.7 288.4 152.6 288 152.3 287.8C152.1 287.4 151.7 287.3 151.3 287.3ZM155.9 292.4H155V284.3H155.9V292.4ZM162.7 289.5C162.7 290.4 162.5 291.2 162 291.7C161.5 292.2 160.9 292.5 160 292.5C159.5 292.5 159.1 292.4 158.7 292.1C158.3 291.9 158 291.5 157.8 291.1C157.6 290.7 157.5 290.1 157.5 289.5C157.5 288.6 157.7 287.8 158.2 287.3C158.7 286.8 159.3 286.5 160.1 286.5C160.9 286.5 161.5 286.8 162 287.3C162.4 287.9 162.7 288.6 162.7 289.5ZM158.3 289.5C158.3 290.2 158.4 290.8 158.7 291.2C159 291.6 159.4 291.8 160 291.8C160.6 291.8 161 291.6 161.3 291.2C161.6 290.8 161.7 290.3 161.7 289.5C161.7 288.8 161.6 288.2 161.3 287.9C161 287.5 160.6 287.3 160 287.3C159.4 287.3 159 287.5 158.7 287.9C158.5 288.2 158.3 288.8 158.3 289.5ZM166.8 292.5C166.4 292.5 166.1 292.4 165.8 292.3C165.5 292.2 165.2 291.9 165 291.7C165 292 165.1 292.4 165.1 292.7V295H164.2V286.7H164.9L165 287.5C165.2 287.2 165.5 287 165.8 286.8C166.1 286.7 166.4 286.6 166.8 286.6C167.6 286.6 168.1 286.9 168.6 287.4C169 287.9 169.2 288.6 169.2 289.6C169.2 290.5 169 291.3 168.6 291.8C168.2 292.2 167.6 292.5 166.8 292.5ZM166.7 287.3C166.1 287.3 165.7 287.5 165.5 287.8C165.2 288.1 165.1 288.6 165.1 289.3V289.5C165.1 290.3 165.2 290.9 165.5 291.2C165.8 291.5 166.2 291.7 166.8 291.7C167.3 291.7 167.7 291.5 168 291.1C168.3 290.7 168.4 290.2 168.4 289.5C168.4 288.8 168.3 288.2 168 287.9C167.6 287.5 167.2 287.3 166.7 287.3ZM178 292.4V288.7C178 288.2 177.9 287.9 177.7 287.7C177.5 287.5 177.2 287.4 176.8 287.4C176.3 287.4 175.9 287.6 175.6 287.9C175.3 288.2 175.2 288.7 175.2 289.3V292.5H174.3V288.8C174.3 288.3 174.2 288 174 287.8C173.8 287.6 173.5 287.5 173.1 287.5C172.6 287.5 172.2 287.7 171.9 288C171.7 288.3 171.5 288.9 171.5 289.6V292.6H170.6V286.9H171.3L171.4 287.7C171.6 287.4 171.8 287.2 172.1 287C172.4 286.8 172.7 286.8 173.1 286.8C174 286.8 174.6 287.1 174.9 287.8C175.1 287.5 175.3 287.3 175.6 287.1C175.9 286.9 176.3 286.8 176.7 286.8C177.3 286.8 177.8 287 178.1 287.3C178.4 287.6 178.6 288.2 178.6 288.9V292.6H178V292.4ZM183 292.5C182.2 292.5 181.5 292.2 181 291.7C180.5 291.2 180.3 290.5 180.3 289.6C180.3 288.7 180.5 287.9 181 287.4C181.5 286.9 182.1 286.6 182.8 286.6C183.5 286.6 184.1 286.8 184.5 287.3C184.9 287.8 185.1 288.4 185.1 289.2V289.7H181.2C181.2 290.4 181.4 290.9 181.7 291.2C182 291.5 182.5 291.7 183.1 291.7C183.7 291.7 184.3 291.6 184.9 291.3V292.1C184.6 292.2 184.3 292.3 184 292.4C183.8 292.4 183.4 292.5 183 292.5ZM182.8 287.3C182.3 287.3 182 287.5 181.7 287.8C181.4 288.1 181.3 288.5 181.2 289H184.2C184.2 288.4 184.1 288 183.8 287.8C183.6 287.4 183.3 287.3 182.8 287.3ZM190.5 292.4V288.7C190.5 288.2 190.4 287.9 190.2 287.7C190 287.5 189.7 287.4 189.2 287.4C188.6 287.4 188.2 287.6 187.9 287.9C187.6 288.2 187.5 288.8 187.5 289.5V292.5H186.6V286.8H187.3L187.4 287.6C187.6 287.3 187.8 287.1 188.1 286.9C188.4 286.7 188.8 286.7 189.2 286.7C189.9 286.7 190.4 286.9 190.7 287.2C191.1 287.5 191.2 288.1 191.2 288.8V292.5H190.5V292.4ZM195 291.7C195.2 291.7 195.3 291.7 195.4 291.7C195.5 291.7 195.7 291.7 195.7 291.6V292.3C195.6 292.3 195.5 292.4 195.3 292.4C195.1 292.4 195 292.4 194.8 292.4C193.7 292.4 193.1 291.8 193.1 290.6V287.2H192.3V286.8L193.1 286.4L193.5 285.2H194V286.5H195.7V287.2H194V290.6C194 290.9 194.1 291.2 194.2 291.4C194.5 291.7 194.7 291.7 195 291.7Z" fill="white"/>
<path d="M429.9 277.3C429.9 278 429.7 278.5 429.2 278.9C428.7 279.3 428.1 279.5 427.2 279.5C426.3 279.5 425.6 279.4 425.1 279.1V278.3C425.4 278.4 425.8 278.5 426.1 278.6C426.5 278.7 426.8 278.7 427.2 278.7C427.8 278.7 428.2 278.6 428.5 278.4C428.8 278.2 429 277.9 429 277.5C429 277.2 428.9 277 428.8 276.8C428.7 276.6 428.5 276.5 428.3 276.3C428.1 276.2 427.7 276 427.2 275.8C426.5 275.5 426 275.2 425.7 274.9C425.4 274.6 425.2 274.1 425.2 273.5C425.2 272.9 425.4 272.5 425.9 272.1C426.3 271.7 426.9 271.6 427.7 271.6C428.5 271.6 429.1 271.7 429.8 272L429.5 272.8C428.9 272.5 428.3 272.4 427.7 272.4C427.2 272.4 426.9 272.5 426.6 272.7C426.3 272.9 426.2 273.2 426.2 273.5C426.2 273.8 426.2 274 426.3 274.1C426.4 274.3 426.6 274.4 426.8 274.6C427 274.7 427.4 274.9 427.8 275.1C428.6 275.4 429.2 275.7 429.5 276C429.7 276.4 429.9 276.8 429.9 277.3ZM436.2 276.5C436.2 277.4 436 278.2 435.5 278.7C435 279.2 434.4 279.5 433.5 279.5C433 279.5 432.6 279.4 432.2 279.1C431.8 278.9 431.5 278.5 431.3 278.1C431.1 277.7 431 277.1 431 276.5C431 275.6 431.2 274.8 431.7 274.3C432.2 273.8 432.8 273.5 433.6 273.5C434.4 273.5 435 273.8 435.5 274.3C436 274.9 436.2 275.6 436.2 276.5ZM431.9 276.5C431.9 277.2 432 277.8 432.3 278.2C432.6 278.6 433 278.8 433.6 278.8C434.2 278.8 434.6 278.6 434.9 278.2C435.2 277.8 435.3 277.3 435.3 276.5C435.3 275.8 435.2 275.2 434.9 274.9C434.6 274.5 434.2 274.3 433.6 274.3C433 274.3 432.6 274.5 432.3 274.9C432 275.2 431.9 275.8 431.9 276.5ZM440.3 274.3H438.8V279.3H438V274.3H437V273.9L438 273.6V273.3C438 271.9 438.6 271.2 439.8 271.2C440.1 271.2 440.5 271.3 440.9 271.4L440.7 272.1C440.4 272 440.1 271.9 439.8 271.9C439.5 271.9 439.2 272 439.1 272.2C438.9 272.4 438.9 272.8 438.9 273.2V273.6H440.4V274.3H440.3ZM443.2 278.7C443.4 278.7 443.5 278.7 443.6 278.7C443.7 278.7 443.9 278.7 443.9 278.6V279.3C443.8 279.3 443.7 279.4 443.5 279.4C443.3 279.4 443.2 279.4 443 279.4C441.9 279.4 441.3 278.8 441.3 277.6V274.2H440.5V273.8L441.3 273.4L441.7 272.2H442.2V273.5H443.9V274.2H442.2V277.6C442.2 277.9 442.3 278.2 442.4 278.4C442.7 278.7 442.9 278.7 443.2 278.7ZM449.8 279.4L448.8 276.1C448.7 275.9 448.6 275.4 448.4 274.7C448.3 275.3 448.1 275.8 448 276.1L446.9 279.4H445.9L444.4 273.7H445.3C445.7 275.1 445.9 276.2 446.1 277C446.3 277.7 446.4 278.2 446.4 278.5C446.4 278.3 446.5 278 446.6 277.7C446.7 277.4 446.8 277.1 446.8 276.9L447.8 273.6H448.7L449.7 276.9C449.9 277.5 450 278 450.1 278.4C450.1 278.3 450.2 278.1 450.2 277.8C450.3 277.5 450.6 276.1 451.3 273.6H452.2L450.6 279.3H449.8V279.4ZM456.9 279.4L456.7 278.6C456.4 279 456.1 279.2 455.9 279.3C455.6 279.4 455.3 279.5 454.8 279.5C454.2 279.5 453.8 279.4 453.5 279.1C453.2 278.8 453 278.4 453 277.9C453 276.8 453.9 276.1 455.8 276.1H456.8V275.8C456.8 275.4 456.7 275 456.5 274.8C456.3 274.6 456 274.5 455.6 274.5C455.1 274.5 454.6 274.6 454 274.9L453.7 274.2C454 274.1 454.3 273.9 454.6 273.9C454.9 273.8 455.3 273.8 455.6 273.8C456.3 273.8 456.8 274 457.1 274.3C457.4 274.6 457.6 275.1 457.6 275.8V279.7H456.9V279.4ZM455 278.7C455.5 278.7 456 278.6 456.3 278.3C456.6 278 456.8 277.6 456.8 277.1V276.6H455.9C455.2 276.6 454.7 276.7 454.4 276.9C454.1 277.1 453.9 277.4 453.9 277.8C453.9 278.1 454 278.4 454.2 278.5C454.4 278.7 454.6 278.7 455 278.7ZM461.9 273.5C462.1 273.5 462.4 273.5 462.6 273.6L462.5 274.4C462.3 274.3 462.1 274.3 461.9 274.3C461.4 274.3 461 274.5 460.7 274.9C460.4 275.3 460.2 275.7 460.2 276.3V279.4H459.3V273.7H460L460.1 274.8C460.3 274.4 460.6 274.1 460.9 273.9C461.3 273.6 461.6 273.5 461.9 273.5ZM466.1 279.5C465.3 279.5 464.6 279.2 464.1 278.7C463.6 278.2 463.4 277.5 463.4 276.6C463.4 275.7 463.6 274.9 464.1 274.4C464.6 273.9 465.2 273.6 465.9 273.6C466.6 273.6 467.2 273.8 467.6 274.3C468 274.8 468.2 275.4 468.2 276.2V276.7H464.3C464.3 277.4 464.5 277.9 464.8 278.2C465.1 278.5 465.6 278.7 466.2 278.7C466.8 278.7 467.4 278.6 468 278.3V279.1C467.7 279.2 467.4 279.3 467.1 279.4C466.8 279.4 466.5 279.5 466.1 279.5ZM465.9 274.3C465.4 274.3 465.1 274.5 464.8 274.8C464.5 275.1 464.4 275.5 464.3 276H467.3C467.3 275.4 467.2 275 466.9 274.8C466.7 274.4 466.3 274.3 465.9 274.3Z" fill="white"/>
<path d="M431.7 288.5C431.7 289.7 431.4 290.7 430.7 291.4C430 292.1 429 292.4 427.8 292.4H425.7V284.8H428C429.2 284.8 430.1 285.1 430.8 285.8C431.5 286.5 431.7 287.3 431.7 288.5ZM430.7 288.5C430.7 287.5 430.5 286.8 429.9 286.3C429.4 285.8 428.7 285.5 427.7 285.5H426.4V291.6H427.5C428.6 291.6 429.4 291.3 429.9 290.8C430.5 290.3 430.7 289.5 430.7 288.5ZM435.6 292.5C434.8 292.5 434.1 292.2 433.6 291.7C433.1 291.2 432.9 290.5 432.9 289.6C432.9 288.7 433.1 287.9 433.6 287.4C434.1 286.9 434.7 286.6 435.4 286.6C436.1 286.6 436.7 286.8 437.1 287.3C437.5 287.8 437.7 288.4 437.7 289.2V289.7H433.8C433.8 290.4 434 290.9 434.3 291.2C434.6 291.5 435.1 291.7 435.7 291.7C436.3 291.7 436.9 291.6 437.5 291.3V292.1C437.2 292.2 436.9 292.3 436.6 292.4C436.4 292.4 436 292.5 435.6 292.5ZM435.4 287.3C434.9 287.3 434.6 287.5 434.3 287.8C434 288.1 433.9 288.5 433.8 289H436.8C436.8 288.4 436.7 288 436.4 287.8C436.2 287.4 435.9 287.3 435.4 287.3ZM440.5 292.4L438.3 286.7H439.2L440.4 290.1C440.7 290.9 440.8 291.4 440.9 291.6C440.9 291.4 441 291 441.2 290.5C441.4 289.9 441.9 288.7 442.6 286.7H443.5L441.3 292.4H440.5ZM447 292.5C446.2 292.5 445.5 292.2 445 291.7C444.5 291.2 444.3 290.5 444.3 289.6C444.3 288.7 444.5 287.9 445 287.4C445.5 286.9 446.1 286.6 446.8 286.6C447.5 286.6 448.1 286.8 448.5 287.3C448.9 287.8 449.1 288.4 449.1 289.2V289.7H445.2C445.2 290.4 445.4 290.9 445.7 291.2C446 291.5 446.5 291.7 447.1 291.7C447.7 291.7 448.3 291.6 448.9 291.3V292.1C448.6 292.2 448.3 292.3 448 292.4C447.7 292.4 447.3 292.5 447 292.5ZM446.7 287.3C446.2 287.3 445.9 287.5 445.6 287.8C445.3 288.1 445.2 288.5 445.1 289H448.1C448.1 288.4 448 288 447.7 287.8C447.5 287.4 447.2 287.3 446.7 287.3ZM451.4 292.4H450.5V284.3H451.4V292.4ZM458.2 289.5C458.2 290.4 458 291.2 457.5 291.7C457 292.2 456.4 292.5 455.5 292.5C455 292.5 454.6 292.4 454.2 292.1C453.8 291.9 453.5 291.5 453.3 291.1C453.1 290.7 453 290.1 453 289.5C453 288.6 453.2 287.8 453.7 287.3C454.2 286.8 454.8 286.5 455.6 286.5C456.4 286.5 457 286.8 457.5 287.3C457.9 287.9 458.2 288.6 458.2 289.5ZM453.8 289.5C453.8 290.2 453.9 290.8 454.2 291.2C454.5 291.6 454.9 291.8 455.5 291.8C456.1 291.8 456.5 291.6 456.8 291.2C457.1 290.8 457.2 290.3 457.2 289.5C457.2 288.8 457.1 288.2 456.8 287.9C456.5 287.5 456.1 287.3 455.5 287.3C454.9 287.3 454.5 287.5 454.2 287.9C454 288.2 453.8 288.8 453.8 289.5ZM462.3 292.5C461.9 292.5 461.6 292.4 461.3 292.3C461 292.2 460.7 291.9 460.5 291.7H460.4C460.4 292 460.5 292.4 460.5 292.7V295H459.6V286.7H460.3L460.4 287.5C460.6 287.2 460.9 287 461.2 286.8C461.5 286.7 461.8 286.6 462.2 286.6C463 286.6 463.5 286.9 464 287.4C464.4 287.9 464.6 288.6 464.6 289.6C464.6 290.5 464.4 291.3 464 291.8C463.6 292.2 463.1 292.5 462.3 292.5ZM462.2 287.3C461.6 287.3 461.2 287.5 461 287.8C460.7 288.1 460.6 288.6 460.6 289.3V289.5C460.6 290.3 460.7 290.9 461 291.2C461.3 291.5 461.7 291.7 462.3 291.7C462.8 291.7 463.2 291.5 463.5 291.1C463.8 290.7 463.9 290.2 463.9 289.5C463.9 288.8 463.8 288.2 463.5 287.9C463.1 287.5 462.7 287.3 462.2 287.3ZM473.5 292.4V288.7C473.5 288.2 473.4 287.9 473.2 287.7C473 287.5 472.7 287.4 472.3 287.4C471.8 287.4 471.4 287.6 471.1 287.9C470.8 288.2 470.7 288.7 470.7 289.3V292.5H469.8V288.8C469.8 288.3 469.7 288 469.5 287.8C469.3 287.6 469 287.5 468.6 287.5C468.1 287.5 467.7 287.7 467.4 288C467.2 288.3 467 288.9 467 289.6V292.6H466.1V286.9H466.8L466.9 287.7C467.1 287.4 467.3 287.2 467.6 287C467.9 286.8 468.2 286.8 468.6 286.8C469.5 286.8 470.1 287.1 470.4 287.8C470.6 287.5 470.8 287.3 471.1 287.1C471.4 286.9 471.8 286.8 472.2 286.8C472.8 286.8 473.3 287 473.6 287.3C473.9 287.6 474.1 288.2 474.1 288.9V292.6H473.5V292.4ZM478.5 292.5C477.7 292.5 477 292.2 476.5 291.7C476 291.2 475.8 290.5 475.8 289.6C475.8 288.7 476 287.9 476.5 287.4C477 286.9 477.6 286.6 478.3 286.6C479 286.6 479.6 286.8 480 287.3C480.4 287.8 480.6 288.4 480.6 289.2V289.7H476.7C476.7 290.4 476.9 290.9 477.2 291.2C477.5 291.5 478 291.7 478.6 291.7C479.2 291.7 479.8 291.6 480.4 291.3V292.1C480.1 292.2 479.8 292.3 479.5 292.4C479.2 292.4 478.9 292.5 478.5 292.5ZM478.3 287.3C477.8 287.3 477.5 287.5 477.2 287.8C476.9 288.1 476.8 288.5 476.7 289H479.7C479.7 288.4 479.6 288 479.3 287.8C479.1 287.4 478.7 287.3 478.3 287.3ZM486 292.4V288.7C486 288.2 485.9 287.9 485.7 287.7C485.5 287.5 485.2 287.4 484.7 287.4C484.1 287.4 483.7 287.6 483.4 287.9C483.1 288.2 483 288.8 483 289.5V292.5H482.1V286.8H482.8L482.9 287.6C483.1 287.3 483.3 287.1 483.6 286.9C483.9 286.7 484.3 286.7 484.7 286.7C485.4 286.7 485.9 286.9 486.2 287.2C486.6 287.5 486.7 288.1 486.7 288.8V292.5H486V292.4ZM490.5 291.7C490.7 291.7 490.8 291.7 490.9 291.7C491 291.7 491.2 291.7 491.2 291.6V292.3C491.1 292.3 491 292.4 490.8 292.4C490.6 292.4 490.5 292.4 490.3 292.4C489.2 292.4 488.6 291.8 488.6 290.6V287.2H487.8V286.8L488.6 286.4L489 285.2H489.5V286.5H491.2V287.2H489.5V290.6C489.5 290.9 489.6 291.2 489.7 291.4C490 291.7 490.2 291.7 490.5 291.7Z" fill="white"/>
</svg>
